<?xml version="1.0" encoding="utf-8"?>
<!-- Generator: Adobe Illustrator 25.2.0, SVG Export Plug-In . SVG Version: 6.00 Build 0)  -->
<svg version="1.1" id="Layer_1" xmlns="http://www.w3.org/2000/svg" xmlns:xlink="http://www.w3.org/1999/xlink" x="0px" y="0px"
	 viewBox="0 0 18 9" style="enable-background:new 0 0 18 9;" xml:space="preserve">
<style type="text/css">
	.st0{fill:#FFFFFF;}
</style>
<g id="Page-1">
	<g id="Osum-Home-v1" transform="translate(-756.000000, -9706.000000)">
		<g id="Group-19" transform="translate(638.000000, 9691.000000)">
			<g id="iconfinder_long-arrow-right_1608444-copy-4" transform="translate(118.000000, 15.000000)">
				<path id="Path" class="st0" d="M18,4.5c0,0.1,0,0.2-0.1,0.3l-4,4.1C13.8,9,13.7,9,13.5,9c-0.1-0.1-0.2-0.2-0.2-0.3V6h-13
					C0.2,6,0.2,6,0.1,5.9S0,5.7,0,5.6V3.4c0-0.1,0-0.2,0.1-0.3S0.2,3,0.3,3h13V0.4c0-0.2,0.1-0.3,0.2-0.3s0.3,0,0.4,0.1l4,4.1
					C18,4.3,18,4.4,18,4.5z"/>
			</g>
		</g>
	</g>
</g>
</svg>
