<?xml version="1.0" encoding="UTF-8"?>
<svg width="18px" height="9px" viewBox="0 0 18 9" version="1.1" xmlns="http://www.w3.org/2000/svg" xmlns:xlink="http://www.w3.org/1999/xlink">
    <title>iconfinder_long-arrow-right_1608444 copy 4</title>
    <g id="Page-1" stroke="none" stroke-width="1" fill="none" fill-rule="evenodd">
        <g id="Osum-Home-v1" transform="translate(-756.000000, -9706.000000)" fill="#1D2C35" fill-rule="nonzero">
            <g id="Group-19" transform="translate(638.000000, 9691.000000)">
                <g id="iconfinder_long-arrow-right_1608444-copy-4" transform="translate(118.000000, 15.000000)">
                    <path d="M18,4.4656535 C18,4.57503467 17.9652778,4.66878995 17.8958333,4.74691936 L13.8958333,8.89559071 C13.7847222,9.00497187 13.6631944,9.02841069 13.53125,8.96590717 C13.3993056,8.89559071 13.3333333,8.78230307 13.3333333,8.62604426 L13.3333333,6.00089629 L0.333333333,6.00089629 C0.236111111,6.00089629 0.15625,5.96573806 0.09375,5.89542159 C0.03125,5.82510513 0,5.73525632 0,5.62587515 L0,3.37574832 C0,3.26636715 0.03125,3.17651834 0.09375,3.10620187 C0.15625,3.03588541 0.236111111,3.00072718 0.333333333,3.00072718 L13.3333333,3.00072718 L13.3333333,0.375579206 C13.3333333,0.211507458 13.3993056,0.0982198221 13.53125,0.0357162989 C13.6631944,-0.0267872242 13.7847222,-0.00725487322 13.8958333,0.0943133519 L17.8958333,4.19610706 C17.9652778,4.27423646 18,4.36408528 18,4.4656535 Z" id="Path"></path>
                </g>
            </g>
        </g>
    </g>
</svg>