<?xml version="1.0" encoding="UTF-8"?>
<svg width="68px" height="66px" viewBox="0 0 68 66" version="1.1" xmlns="http://www.w3.org/2000/svg" xmlns:xlink="http://www.w3.org/1999/xlink">
    <title>Group 11</title>
    <g id="Page-1" stroke="none" stroke-width="1" fill="none" fill-rule="evenodd">
        <g id="Hover-Stages" transform="translate(-1465.000000, -448.000000)" fill="#1D2C35">
            <g id="Group-11" transform="translate(1465.000000, 448.000000)">
                <polyline id="Fill-6" points="42.1029989 15 29.4770858 22.9795894 26.3026431 18.7419369 25 19.5658476 29.0702792 25 43 16.1966068 42.1029989 15"></polyline>
                <path d="M26.6273785,33.4583333 C18.3540586,25.2737356 15.8763501,12.7411089 15.369863,9.57966275 C26.7716907,8.04696991 32.4815514,3.82480944 34.2251499,2.29166667 C35.969213,3.82582179 41.6843025,8.05090681 53.0958904,9.58168744 C52.6569117,12.7288482 50.4194912,25.3368385 42.1175877,33.4583333 L26.6273785,33.4583333 Z M22.3138494,37.3474746 L22.3138494,44.8296365 L22.8605109,45.0014229 C22.929625,45.023067 24.5777132,45.5237309 26.206931,44.5516798 C27.4788856,43.7921972 28.3550258,42.3865792 28.8162497,40.3688869 L34.3568406,40.3688869 C34.8600887,41.9982373 36.5004203,44.2671159 40.2142914,44.2671159 L42.0390432,44.2671159 L53.63204,51.991009 C54.8845454,52.5823505 54.4915095,54.4080933 54.1741865,54.8634183 C53.2795233,56.2463668 51.7177988,55.7094775 51.2515968,55.3947257 L48.3004122,53.4254479 L48.3002965,53.4254479 L40.0132006,47.8268984 L39.1236312,49.1020818 L47.4101482,54.7007452 C48.3647798,55.3458554 48.6078948,56.6341392 47.9527578,57.5734962 C46.9409363,58.8894618 45.4954439,58.4186441 45.033757,58.1073098 L36.7466611,52.5088743 L36.68102,52.6029694 L36.6494151,52.5823505 L35.7813787,53.8726848 L41.4529045,57.5679143 C42.4075361,58.2130245 42.6506511,59.5014222 41.9959771,60.4402097 C41.340377,61.3795667 40.0301029,61.6192474 39.0883216,60.9821113 L33.7539154,57.2390368 L32.8408449,58.4991832 L34.8110026,59.8813344 L34.7709465,59.9386345 C35.7255781,60.5837447 35.9686931,61.8720285 35.3140191,62.8113855 C34.9965804,63.2662548 34.5181069,63.572349 33.9668147,63.6731652 C33.4419178,63.7707918 32.9107694,63.662571 32.4598489,63.3807411 C32.6495944,62.8857731 32.7232235,62.3533265 32.6417221,61.8156397 C32.5153023,60.9850732 32.0684338,60.2529306 31.3826179,59.7537477 C30.8960406,59.3987833 30.3162692,59.2170862 29.726889,59.1816581 L30.09434,58.6930694 C31.256777,57.1489287 30.9250987,54.9616144 29.3552703,53.8172074 C27.455616,52.5823505 25.7354037,53.4000445 25.1271531,53.8487623 C24.9184215,53.1417954 24.4952856,52.4908754 23.848947,52.019716 C21.9523027,50.7667464 20.2652003,51.5934398 19.6645905,52.0230196 C18.9168382,49.9607858 16.9924093,49.5578625 16.2475513,49.5578625 C16.0926523,49.5578625 15.9433102,49.5910123 15.791537,49.6112894 C15.7284428,49.4782347 15.6721791,49.356116 15.6190411,49.2395793 C15.5187851,49.0190366 15.4204972,48.8035062 15.2746282,48.5138161 C14.7416275,47.4547326 13.6911391,46.4897444 13.0410959,45.9553612 L20.3638356,35.4603308 C20.4981277,35.2678116 20.5870383,35.0542178 20.6509428,34.8333333 L26.8920523,34.8333333 L22.3138494,37.3474746 Z M30.8722478,63.0942652 L30.5422086,63.5202968 C30.0026073,64.219244 28.9013455,64.3809502 28.1678173,63.8594969 C27.8028713,63.6013241 27.5654322,63.2220747 27.4984063,62.7925606 C27.4315015,62.3629304 27.5430094,61.9344611 27.8124465,61.5855099 L28.1424857,61.1594783 C28.4662222,60.740644 28.9640081,60.5 29.5090636,60.5 C29.8740096,60.5 30.2223506,60.610745 30.5169982,60.8196978 C30.881823,61.0778706 31.1192621,61.45712 31.186288,61.8867502 C31.2537988,62.3162643 31.1418061,62.7453141 30.8722478,63.0942652 Z M26.7443001,60.6486714 C26.1355211,61.4791541 24.8937515,61.6713103 24.0642535,61.0515979 C23.6525451,60.7450332 23.3847544,60.2948905 23.3090793,59.7845925 C23.2334042,59.2742945 23.3598672,58.7649046 23.6644819,58.3504009 L24.8404862,56.7486827 C24.8404862,56.7486827 24.840824,56.7477747 24.8411618,56.7474342 L25.8859735,55.3240252 C26.2513985,54.8267798 26.8135563,54.5416667 27.4289794,54.5416667 C27.8411383,54.5416667 28.2346037,54.6727597 28.5670335,54.9206446 C29.4164638,55.5548851 29.5957416,56.7667293 28.9669178,57.6222956 L26.7443001,60.6486714 Z M22.1668676,57.8902099 C21.542811,58.7297076 20.2730395,58.9239497 19.424106,58.2980839 C19.0032681,57.9877325 18.7288537,57.5327034 18.6513218,57.0167513 C18.5788589,56.5329244 18.6944079,56.0529983 18.9654814,55.6492546 C19.0516535,55.5570097 19.1493459,55.4769264 19.2253802,55.3746997 C19.3379338,55.2232528 19.4280229,55.0606769 19.5131582,54.8964947 L20.2175115,53.9478863 C20.5914616,53.4452432 21.8030554,52.7137088 22.9603884,53.5400123 C23.8287913,54.1806786 24.0126559,55.4062512 23.3693603,56.2711048 L22.1668676,57.8902099 Z M15.2903686,54.6783218 L15.1612272,54.5825738 C14.7740242,54.2966566 14.5223755,53.8767363 14.4509497,53.4012027 C14.3800767,52.9250056 14.5610737,51.4273123 16.2351571,51.3333333 C16.62236,51.3333333 16.9924252,51.4560588 17.3027846,51.6858098 L17.4333634,51.7831057 C19.3788869,53.7422911 17.0156441,55.8101605 15.2903686,54.6783218 Z M59.33899,47.432858 C58.9477714,47.7274558 58.493666,47.8692027 58.121325,47.8125492 C57.9144818,47.7810499 57.7577859,47.6913109 57.6554066,47.5455983 L48.7895223,34.9110902 C48.687143,34.7653775 48.6579579,34.5899785 48.7020829,34.3890855 C48.7818786,34.0288829 49.0803304,33.6642615 49.5033978,33.41374 C51.3871072,32.2916622 53.2647943,31.1239217 55.0834165,29.9426976 L54.2140032,28.6602906 C52.4117108,29.8310904 50.5515115,30.9877268 48.6865639,32.0988139 C48.0463459,32.4782786 47.5739419,33.0187523 47.3197309,33.6191653 L44.0314332,33.6191653 C52.9664583,23.8572128 54.4071804,9.60343629 54.4664771,8.97401668 L54.5361969,8.23253658 L53.7803968,8.1404181 C40.144842,6.47922622 34.6380175,0.691285157 34.5837009,0.633158738 L33.996873,2.84217094e-14 L33.4147935,0.634631727 C33.3615192,0.692758147 27.9171183,6.47174796 14.219719,8.1404181 L13.4485157,8.23412288 L13.5356076,8.98953972 C13.6069488,9.61533351 15.3348889,23.7954605 24.2707247,33.6191653 L20.6805007,33.6191653 C20.4265213,33.0188656 19.9544648,32.4782786 19.3155207,32.0993804 C17.4510364,30.9887466 15.5909529,29.8319968 13.7859968,28.6602906 L12.9165835,29.9426976 C14.7378694,31.1255079 16.6154407,32.2932485 18.4986869,33.4143065 C18.9201328,33.6642615 19.2187005,34.0288829 19.2980329,34.3890855 C19.3425053,34.5895253 19.312857,34.7653775 19.210941,34.9110902 L10.3441301,47.5455983 C10.2422141,47.6913109 10.0855182,47.7810499 9.87867496,47.8125492 C9.50691305,47.8727152 9.05176531,47.727909 8.66054671,47.4318382 C6.11878396,45.5157059 3.50336371,43.6577 0.886785319,41.9099416 L0,43.1803382 C2.59144682,44.9121202 5.18231457,46.7525636 7.69940901,48.6502269 C10.0153351,50.1565283 11.2949604,48.9101528 11.6411275,48.4162482 L12.287831,47.4946102 C12.8735008,47.987495 13.6449357,48.7336207 14.0061586,49.4481338 C14.1418922,49.7151981 14.2324585,49.9140516 14.3256885,50.1174374 C14.3681921,50.2097825 14.4131278,50.3064333 14.4601482,50.4065965 C14.1392285,50.618707 13.8411241,50.8649228 13.6062539,51.1750436 C13.0563706,51.9017939 12.8290284,52.7945386 12.9652252,53.6887564 C13.1018854,54.5834273 13.5857549,55.3719298 14.3282364,55.9094575 L14.463391,56.0076946 C15.503282,56.8683735 16.9375185,56.6367743 17.1425087,56.5996096 C17.1318539,57.6734187 17.6193136,58.7383899 18.5667853,59.4251428 C19.1817559,59.8698722 19.9103398,60.1053239 20.6733203,60.1053239 C20.9841642,60.1053239 21.2877118,60.056262 21.5830367,59.9788734 C21.5881325,60.1058904 21.5832683,60.2323409 21.602725,60.3599244 C21.7423963,61.276237 22.2386579,62.0836617 22.999438,62.6347862 C23.6139453,63.0800822 24.3425292,63.3154205 25.1053939,63.3154205 C25.4632581,63.3154205 25.8086145,63.2443771 26.1441267,63.1427409 C26.1498016,63.2069859 26.1442425,63.2706643 26.1540867,63.3350226 C26.2805552,64.161143 26.727596,64.8894795 27.4136762,65.3858768 C27.9681921,65.7876629 28.6252031,66 29.313368,66 C30.2663987,66 31.1656919,65.5669412 31.7688495,64.8519749 C34.3963144,66.2670643 36.2048608,64.6485891 36.7598399,63.8570273 C37.2071123,63.2199029 37.4079332,62.4908865 37.3961202,61.7711613 C37.3961202,61.7711613 38.8367266,63.0575341 40.4107502,63.0575341 C41.5811632,63.0575341 42.7332777,62.5124148 43.4444895,61.4989983 C43.8878242,60.8674258 44.0902665,60.1453212 44.0816963,59.4312614 L44.296994,59.5758409 C46.9800494,61.1534123 48.8483556,59.4386263 49.4034506,58.6476311 C49.8508388,58.0103933 50.0516597,57.2811504 50.0397309,56.5611986 L50.5208209,56.8802707 C53.3374095,58.4602216 55.0721826,56.7430561 55.6272775,55.9520609 C56.1828357,55.1604992 56.3901422,54.2047558 56.2109785,53.261023 C56.0311198,52.31763 55.4874904,51.498648 54.6743626,50.9526223 L42.673402,43.0024464 L40.3655829,43.0024464 C36.4368356,43.0024464 35.9323512,39.9195933 35.9140526,39.7929163 L35.8229073,39.1250856 L27.6549161,39.1250856 L27.5422294,39.7637964 C27.2108865,41.6433306 26.5432206,42.8992238 25.5570672,43.4964643 C24.9964132,43.8364982 24.4317057,43.8996101 24.031222,43.8826141 L24.031222,38.5626304 L30.2662829,35.1580991 L47.2056544,35.1580991 C47.3405774,35.8735186 56.3585251,48.4162482 56.3585251,48.4162482 C57.7577859,50.0808393 59.687705,49.1141052 60.2995487,48.6512466 C62.822318,46.7496176 65.4131857,44.9090609 68,43.1803382 L67.1130989,41.9099416 C64.5012688,43.654754 61.8858486,45.5127599 59.33899,47.432858 Z" id="Fill-7"></path>
                <polyline id="Fill-8" points="58 42.6206749 57.6204274 42 57 42.3793251 57.3796262 43 58 42.6206749"></polyline>
                <polyline id="Fill-9" points="58.3795394 44 59 43.6206416 58.6203535 43 58 43.3793584 58.3795394 44"></polyline>
                <polyline id="Fill-10" points="10 43.4098196 9.40978577 43 9 43.5901804 9.59026713 44 10 43.4098196"></polyline>
                <polyline id="Fill-11" points="11 42.4098196 10.4101058 42 10 42.5901804 10.59 43 11 42.4098196"></polyline>
            </g>
        </g>
    </g>
</svg>