<?xml version="1.0" encoding="UTF-8"?>
<svg width="30px" height="30px" viewBox="0 0 30 30" version="1.1" xmlns="http://www.w3.org/2000/svg" xmlns:xlink="http://www.w3.org/1999/xlink">
    <title>Path 56</title>
    <g id="Page-1" stroke="none" stroke-width="1" fill="none" fill-rule="evenodd">
        <g id="Osum-Home-v1" transform="translate(-499.000000, -1340.000000)" fill="#1D2C35" fill-rule="nonzero">
            <path d="M524.606583,1344.39336 C521.773457,1341.56029 518.00664,1340 514,1340 C509.993301,1340 506.226485,1341.56029 503.393359,1344.39336 C500.560293,1347.22648 499,1350.99336 499,1355 C499,1359.00664 500.560293,1362.77346 503.393359,1365.60658 C506.226485,1368.43971 509.993359,1370 514,1370 C518.00664,1370 521.773457,1368.43971 524.606583,1365.60664 C527.439706,1362.77346 529,1359.00664 529,1355 C529,1350.99336 527.439706,1347.22654 524.606583,1344.39336 Z M521.239925,1352.05356 L512.771167,1360.73347 C512.597784,1360.91118 512.370533,1361 512.143342,1361 C511.916093,1361 511.688843,1360.91118 511.51546,1360.73347 L506.760074,1355.85962 C506.413309,1355.50427 506.413309,1354.92808 506.760074,1354.57261 C507.106781,1354.2172 507.669016,1354.2172 508.015782,1354.57261 L512.143342,1358.80299 L519.984216,1350.76656 C520.330923,1350.41115 520.893159,1350.41115 521.239925,1350.76656 C521.586692,1351.12197 521.586692,1351.69815 521.239925,1352.05356 Z" id="Path-56"></path>
        </g>
    </g>
</svg>