<?xml version="1.0" encoding="utf-8"?>
<!-- Generator: Adobe Illustrator 25.2.0, SVG Export Plug-In . SVG Version: 6.00 Build 0)  -->
<svg version="1.1" id="Layer_1" xmlns="http://www.w3.org/2000/svg" xmlns:xlink="http://www.w3.org/1999/xlink" x="0px" y="0px"
	 viewBox="0 0 33 20" style="enable-background:new 0 0 33 20;" xml:space="preserve">
<style type="text/css">
	.st0{fill-rule:evenodd;clip-rule:evenodd;fill:#FFFFFF;}
</style>
<g id="Page-1">
	<g id="Osum-Home-v1" transform="translate(-1003.000000, -1736.000000)">
		<g id="Group" transform="translate(855.000000, 1714.000000)">
			<g id="Group-3" transform="translate(148.000000, 22.000000)">
				<path id="Fill-1" class="st0" d="M9.8,10.8h18.6L22,17.3c-0.5,0.5-0.5,1.2,0,1.7c0.5,0.5,1.2,0.5,1.7,0l8.5-8.5
					c0.1-0.1,0.1-0.1,0.1-0.2c0,0,0-0.1,0.1-0.1c0,0,0-0.1,0.1-0.1c0,0,0-0.1,0-0.1c0,0,0-0.1,0-0.1c0-0.1,0-0.2,0-0.2
					c0-0.1,0-0.2,0-0.2c0,0,0-0.1,0-0.1c0,0,0-0.1,0-0.1c0,0,0-0.1-0.1-0.1c0,0,0-0.1,0-0.1c0-0.1-0.1-0.1-0.1-0.2l-8.4-8.4
					c-0.5-0.5-1.2-0.5-1.7,0c-0.5,0.5-0.5,1.2,0,1.7l6.4,6.4H1.2C0.5,8.5,0,9,0,9.6s0.5,1.2,1.2,1.2"/>
			</g>
		</g>
	</g>
</g>
</svg>
