<?xml version="1.0" encoding="UTF-8"?>
<svg width="33px" height="20px" viewBox="0 0 33 20" version="1.1" xmlns="http://www.w3.org/2000/svg" xmlns:xlink="http://www.w3.org/1999/xlink">
    <title>Group 3</title>
    <g id="Page-1" stroke="none" stroke-width="1" fill="none" fill-rule="evenodd">
        <g id="Osum-Home-v1" transform="translate(-1003.000000, -1736.000000)" fill="#1D2C35">
            <g id="Group" transform="translate(855.000000, 1714.000000)">
                <g id="Group-3" transform="translate(148.000000, 22.000000)">
                    <path d="M9.7847591,10.8405209 L28.4115112,10.8405209 L22.0010211,17.2510109 C21.5343365,17.7179943 21.5343365,18.4747883 22.0007224,18.9408754 C22.467407,19.4078588 23.2244997,19.4078588 23.6911844,18.9408754 L32.141403,10.490358 C32.1969749,10.4350848 32.2465714,10.3738362 32.2901923,10.3087035 C32.3102102,10.2782286 32.3242525,10.245961 32.3415814,10.214291 C32.3613005,10.1772431 32.3840073,10.1419878 32.3998423,10.1028484 C32.4168724,10.062514 32.4264332,10.0209844 32.4383841,9.9788573 C32.4482437,9.94569341 32.4610909,9.91402339 32.4679627,9.87996318 C32.483499,9.802282 32.4915659,9.72430204 32.4915659,9.64542577 C32.4909683,9.56535439 32.4832002,9.48797199 32.4679627,9.41178468 C32.4607922,9.37593182 32.4473473,9.34246916 32.4368903,9.30721385 C32.4252381,9.26747694 32.4162749,9.22744126 32.4001411,9.18889944 C32.3828122,9.14707111 32.3595078,9.10942562 32.3379961,9.07028625 C32.3218624,9.0413052 32.3090151,9.01112905 32.2904911,8.98304431 C32.2468701,8.91731408 32.1966761,8.85546791 32.1408054,8.79959721 L23.6908856,0.350274911 C23.224201,-0.116708496 22.467407,-0.116708496 22.0007224,0.349976137 C21.5340377,0.816361997 21.5340377,1.57315596 22.0007224,2.04013937 L28.4112124,8.45033067 L1.19509509,8.45033067 C0.535103828,8.45033067 0,8.9854345 0,9.64542577 C0,10.305417 0.535103828,10.8405209 1.19509509,10.8405209" id="Fill-1"></path>
                </g>
            </g>
        </g>
    </g>
</svg>