<?xml version="1.0" encoding="UTF-8"?>
<svg width="141px" height="108px" viewBox="0 0 141 108" version="1.1" xmlns="http://www.w3.org/2000/svg" xmlns:xlink="http://www.w3.org/1999/xlink">
    <title>Artboard</title>
    <g id="Artboard" stroke="none" stroke-width="1" fill="none" fill-rule="evenodd">
        <g id="Icon/Emoji" transform="translate(35.000000, 19.000000)" fill="#1D2C35">
            <path d="M35,-1.08504921e-14 C54.25,-7.31432447e-15 70,15.75 70,35 C70,54.25 54.25,70 35,70 C15.75,70 -3.62672855e-14,54.25 -2.20564308e-14,35 C-2.20564308e-14,15.75 15.75,-1.43866597e-14 35,-1.08504921e-14 Z M35,4.375 C18.15625,4.375 4.375,18.15625 4.375,35 C4.375,51.84375 18.15625,65.625 35,65.625 C51.84375,65.625 65.625,51.84375 65.625,35 C65.625,18.15625 51.84375,4.375 35,4.375 Z M50.1067568,42.3779054 L53.2848986,44.4315541 C49.2681757,50.6471284 42.2528041,54.3907095 34.9326014,54.3907095 C34.1179054,54.3907095 33.3006081,54.3445946 32.4821284,54.2502365 C26.2450543,53.5307521 20.4683075,50.0026833 16.9456408,44.7820889 L16.7141554,44.4315541 L19.8920608,42.3779054 C22.7826351,46.8510473 27.6511824,49.884223 32.9158446,50.4912838 C39.6715541,51.2707432 46.418277,48.0855068 50.1067568,42.3779054 Z M23.5696622,23.4116892 C25.6593882,23.4116892 27.3534459,25.1057469 27.3534459,27.195473 C27.3534459,29.2851991 25.6593882,30.9792568 23.5696622,30.9792568 C21.4799361,30.9792568 19.7858784,29.2851991 19.7858784,27.195473 C19.7858784,25.1057469 21.4799361,23.4116892 23.5696622,23.4116892 Z M46.9818243,23.4116892 C49.0715504,23.4116892 50.7656081,25.1057469 50.7656081,27.195473 C50.7656081,29.2851991 49.0715504,30.9792568 46.9818243,30.9792568 C44.8920982,30.9792568 43.1980405,29.2851991 43.1980405,27.195473 C43.1980405,25.1057469 44.8920982,23.4116892 46.9818243,23.4116892 Z" id="Icon-Color"></path>
        </g>
    </g>
</svg>