<?xml version="1.0" encoding="UTF-8"?>
<svg width="68px" height="76px" viewBox="0 0 68 76" version="1.1" xmlns="http://www.w3.org/2000/svg" xmlns:xlink="http://www.w3.org/1999/xlink">
    <title>🍎Icon</title>
    <g id="Page-1" stroke="none" stroke-width="1" fill="none" fill-rule="evenodd" stroke-linecap="round" stroke-linejoin="round">
        <g id="Osum-Home-v1" transform="translate(-498.000000, -5821.000000)" stroke="#A7ADB0" stroke-width="1.5">
            <g id="Document" transform="translate(499.000000, 5822.000000)">
                <line x1="47.6272605" y1="54.1863064" x2="19.0383379" y2="54.1863064" id="Stroke-1"></line>
                <line x1="47.6272605" y1="37.4304616" x2="19.0383379" y2="37.4304616" id="Stroke-2"></line>
                <line x1="29.9476649" y1="20.7134396" x2="19.0387339" y2="20.7134396" id="Stroke-3"></line>
                <path d="M48.3891038,0.260222457 C48.3891038,0.260222457 17.9906054,0.276231864 17.9430892,0.276231864 C7.01435977,0.34427184 0.247258852,7.61254227 0.247258852,18.6990561 L0.247258852,55.504681 C0.247258852,66.6472277 7.06583567,73.9435146 18.0895975,73.9435146 C18.0895975,73.9435146 48.4841362,73.9315076 48.5356121,73.9315076 C59.4643415,73.8634676 66.2354021,66.5911948 66.2354021,55.504681 L66.2354021,18.6990561 C66.2354021,7.55650935 59.4128656,0.260222457 48.3891038,0.260222457 Z" id="Stroke-4"></path>
            </g>
        </g>
    </g>
</svg>