<?xml version="1.0" encoding="utf-8"?>
<!-- Generator: Adobe Illustrator 25.2.0, SVG Export Plug-In . SVG Version: 6.00 Build 0)  -->
<svg version="1.1" id="Layer_1" xmlns="http://www.w3.org/2000/svg" xmlns:xlink="http://www.w3.org/1999/xlink" x="0px" y="0px"
	 viewBox="0 0 33 19" style="enable-background:new 0 0 33 19;" xml:space="preserve">
<style type="text/css">
	.st0{fill-rule:evenodd;clip-rule:evenodd;fill:#FFFFFF;}
</style>
<g transform="translate(1424.000000, 57.000000)">
	<path id="Fill-9" class="st0" d="M-1391.6-55.5h-20.3c0,0-0.1,0-0.1,0.1v1.9c0,0,0,0.1,0.1,0.1h20.3c0,0,0.1,0,0.1-0.1
		L-1391.6-55.5C-1391.5-55.5-1391.5-55.5-1391.6-55.5"/>
	<path id="Fill-10" class="st0" d="M-1416.7-41.4c0,1.4-1.1,2.6-2.5,2.6s-2.5-1.2-2.5-2.6c0-1.4,1.1-2.6,2.5-2.6
		C-1417.8-44-1416.7-42.8-1416.7-41.4"/>
	<path id="Fill-12" class="st0" d="M-1411.8-49.9h9.6c0,0,0.1,0,0.1-0.1v-1.9c0,0,0-0.1-0.1-0.1h-9.6c0,0-0.1,0-0.1,0.1
		L-1411.8-49.9C-1411.9-50-1411.9-49.9-1411.8-49.9"/>
	<path id="Fill-13" class="st0" d="M-1391.6-44.2h-20.3c0,0-0.1,0-0.1,0.1v1.9c0,0,0,0.1,0.1,0.1h20.3c0,0,0.1,0,0.1-0.1
		L-1391.6-44.2C-1391.5-44.1-1391.5-44.2-1391.6-44.2"/>
	<path id="Fill-14" class="st0" d="M-1411.8-38.6h9.6c0,0,0.1,0,0.1-0.1v-1.9c0,0,0-0.1-0.1-0.1h-9.6c0,0-0.1,0-0.1,0.1
		L-1411.8-38.6C-1411.9-38.6-1411.9-38.6-1411.8-38.6"/>
	<polygon id="Fill-17" class="st0" points="-1422.2,-54.6 -1424,-52.7 -1422.2,-50.9 -1420.4,-49 -1418.6,-50.9 -1414.4,-55.1 
		-1416.2,-57 -1420.4,-52.8 	"/>
</g>
</svg>
