<?xml version="1.0" encoding="UTF-8"?>
<svg width="51px" height="87px" viewBox="0 0 51 87" version="1.1" xmlns="http://www.w3.org/2000/svg" xmlns:xlink="http://www.w3.org/1999/xlink">
    <title>Group 12</title>
    <g id="Page-1" stroke="none" stroke-width="1" fill="none" fill-rule="evenodd">
        <g id="Osum-Home-v1" transform="translate(-1228.000000, -149.000000)" fill="#0A0B09">
            <g id="Group-4" transform="translate(1222.000000, 149.000000)">
                <g id="Group-12" transform="translate(6.126923, 0.000000)">
                    <path d="M23.4902603,49.6489619 C22.0650371,49.8851217 20.7126031,50.436606 19.6431608,51.3180913 C18.113653,52.5771655 17.2730769,54.2683098 17.2730769,56.0793129 C17.2730769,57.8923175 18.113653,59.5834617 19.6431608,60.8445373 C21.1059452,62.046684 23.0348608,62.7084651 25.0729603,62.7084651 C26.3526049,62.7084651 27.545929,63.1114044 28.4340981,63.8421211 C29.2541438,64.5196907 29.7076769,65.3996194 29.7076769,66.3209094 C29.7076769,67.2439785 29.2541438,68.1241296 28.4340981,68.7996978 C26.65776,70.2611311 23.4883939,70.2591298 21.7118225,68.8016992 C20.8917767,68.1241296 20.4382436,67.2439785 20.4382436,66.3209094 L17.2730769,66.3209094 C17.2730769,68.133914 18.113653,69.8250583 19.6431608,71.0859114 C20.7196021,71.97051 22.0510391,72.5566844 23.4902603,72.8077431 L23.4902603,76.8 L26.6556603,76.8 L26.6556603,72.8077431 C28.0948814,72.5566844 29.4263184,71.9702876 30.502993,71.0841324 C32.0320343,69.8250583 32.8730769,68.133914 32.8730769,66.3209094 C32.8730769,64.5099063 32.0320343,62.8185396 30.502993,61.5594655 C29.0420751,60.3555397 27.1131595,59.6915349 25.0729603,59.6915349 C23.7933156,59.6915349 22.6002248,59.2888179 21.7118225,58.5601026 C20.8917767,57.8825331 20.4382436,57.0026043 20.4382436,56.0793129 C20.4382436,55.1580229 20.8917767,54.2780942 21.7118225,53.6005246 C23.4883939,52.1390913 26.65776,52.1390913 28.4340981,53.6005246 C29.2541438,54.2780942 29.7076769,55.1580229 29.7076769,56.0793129 L32.8730769,56.0793129 C32.8730769,54.2683098 32.0320343,52.5771655 30.502993,51.3180913 C29.4333174,50.436606 28.0811168,49.8851217 26.6556603,49.6489619 L26.6556603,45.6 L23.4902603,45.6 L23.4902603,49.6489619 Z" id="Fill-10"></path>
                    <path d="M15.1093169,28.4835165 C13.9852206,28.4815747 12.9524462,28.30444 12.0423165,27.9518967 C8.52356001,26.5967408 6.49131932,22.6005305 5.67692308,20.6259426 C7.09549899,19.9801885 9.70434633,18.989011 12.3736337,18.989011 C13.4977299,18.989011 14.530725,19.1683032 15.4406341,19.5206308 C17.3866264,20.270163 18.8625542,21.8276968 19.94496,23.4040014 C18.0677899,22.5153074 15.7090849,21.7230557 12.9367847,21.4969447 L12.6875248,24.4128708 C16.2803975,24.7062973 19.1071819,26.1458133 20.8153846,27.2586765 C19.334604,27.8463926 17.2593494,28.4835165 15.1093169,28.4835165 Z M30.4636503,6.96038597 C34.6034975,2.84661216 41.6861496,2.75482823 44.441803,2.87667931 C44.5686931,5.71226017 44.4176984,12.721297 40.3381126,16.7769711 C36.6335121,20.4598578 30.5959981,20.920586 27.387588,20.8862236 C28.8199911,18.4772345 31.8144162,14.3978232 36.8754675,11.6949447 L35.4130474,8.99116193 C31.2791126,11.2000801 28.3942952,14.1694937 26.4923077,16.6876739 C26.8222675,13.5043993 27.7985028,9.60968614 30.4636503,6.96038597 Z M46.3615385,61.7143981 C46.3615385,73.7555386 36.599443,83.5516484 24.599888,83.5516484 C12.600557,83.5516484 2.83846154,73.7555386 2.83846154,61.7143981 C2.83846154,49.6732576 12.600557,39.8769231 24.599888,39.8769231 C36.599443,39.8769231 46.3615385,49.6732576 46.3615385,61.7143981 Z M3.62376795e-13,61.9054568 C3.62376795e-13,75.4119611 11.035296,86.4 24.5998889,86.4 C38.164704,86.4 49.2,75.4119611 49.2,61.9054568 C49.2,48.9488299 39.0374958,38.3381406 26.2364013,37.4934173 L26.2364013,23.6314612 C26.5758327,23.644069 26.9581373,23.6524742 27.3764287,23.6524742 C30.9691143,23.6524742 37.6388963,23.0154479 41.9242174,18.7504689 C48.0302058,12.6701862 46.7628916,1.89891325 46.7058014,1.44392612 L46.5607434,0.285334665 L45.3971691,0.140676625 C45.3500752,0.134925694 44.243369,4.97379915e-14 42.5637612,4.97379915e-14 C38.9690764,4.97379915e-14 32.2995164,0.637026228 28.0159725,4.9020053 C22.1088003,10.7838808 23.0999932,21.0276165 23.2223929,22.1032618 L23.2223929,23.1107807 C21.8553375,20.7237019 19.681244,17.977411 16.4764165,16.7203902 C15.2048817,16.2200591 13.7942866,15.9663546 12.2812846,15.9663546 C7.4679345,15.9663546 3.08664852,18.5120264 2.90227153,18.6212941 L1.89352947,19.2154095 L2.22318664,20.3368411 C2.3211508,20.6708375 4.70916602,28.5427564 10.8411448,30.9479728 C12.1126796,31.4480826 13.5234968,31.7000177 15.0362767,31.7017872 C15.0362767,31.7017872 15.0362767,31.7017872 15.038276,31.7017872 C18.4325897,31.7017872 21.5785499,30.4456511 23.2223929,29.660649 L23.2223929,37.4803671 C10.2995652,38.1983488 3.62376795e-13,48.8621236 3.62376795e-13,61.9054568 L3.62376795e-13,61.9054568 Z" id="Fill-11"></path>
                </g>
            </g>
        </g>
    </g>
</svg>