<?xml version="1.0" encoding="UTF-8"?>
<svg width="72px" height="65px" viewBox="0 0 72 65" version="1.1" xmlns="http://www.w3.org/2000/svg" xmlns:xlink="http://www.w3.org/1999/xlink">
    <title>Group 30</title>
    <defs>
        <polygon id="path-1" points="0.0819989194 0.0443876317 9.52276808 0.0443876317 9.52276808 9.40014245 0.0819989194 9.40014245"></polygon>
    </defs>
    <g id="Page-1" stroke="none" stroke-width="1" fill="none" fill-rule="evenodd">
        <g id="Hover-Stages" transform="translate(-1057.000000, -292.000000)">
            <g id="Group-30" transform="translate(1057.500000, 292.000000)">
                <g id="Group-3" transform="translate(30.550288, 0.076231)">
                    <mask id="mask-2" fill="white">
                        <use xlink:href="#path-1"></use>
                    </mask>
                    <g id="Clip-2"></g>
                    <path d="M4.80268779,1.68658526 C6.49171704,1.68658526 7.86562798,3.04873071 7.86562798,4.72243391 C7.86562798,6.39625772 6.49171704,7.75792069 4.80268779,7.75792069 C3.11378025,7.75792069 1.73926074,6.39625772 1.73926074,4.72243391 C1.73926074,3.04873071 3.11378025,1.68658526 4.80268779,1.68658526 M4.80268779,9.40014245 C7.40542624,9.40014245 9.52276808,7.3018619 9.52276808,4.72243391 C9.52276808,2.14312653 7.40542624,0.0443635079 4.80268779,0.0443635079 C2.19982762,0.0443635079 0.0819989194,2.14312653 0.0819989194,4.72243391 C0.0819989194,7.3018619 2.19982762,9.40014245 4.80268779,9.40014245" id="Fill-1" fill="#000000" mask="url(#mask-2)"></path>
                </g>
                <path d="M35.3529754,63.0855235 C23.1816678,63.0855235 15.4148353,60.559047 15.4148353,58.8202098 C15.4148353,57.7023169 19.1100813,55.8169282 27.2628698,54.9635518 L27.1573435,58.5404953 L33.2992902,58.5404953 L35.3528537,41.9345757 L37.4060521,58.5404953 L43.5481205,58.5404953 L43.4425942,54.9635518 C51.5958696,55.8177725 55.2911155,57.7044881 55.2911155,58.8202098 C55.2911155,60.559047 47.524283,63.0855235 35.3529754,63.0855235 L35.3529754,63.0855235 Z M26.0768857,32.6626267 L26.0768857,17.2897907 C26.0768857,14.5419792 28.2070075,12.2785718 30.9172197,12.0354048 L33.9774822,17.6826453 L36.7285904,17.6826453 L39.7887311,12.0354048 C42.4983347,12.2785718 44.6285783,14.5419792 44.6285783,17.2897907 L44.6285783,32.6626267 L42.7843633,32.6626267 L42.5102627,23.3764447 L40.8540963,23.4245715 L41.841321,56.8982736 L38.8722225,56.8982736 L36.2078966,35.3434949 L35.3529754,35.4474681 L34.4980542,35.3434949 L31.8332415,56.8982736 L28.864143,56.8982736 L29.8518545,23.4245715 L28.1958098,23.3764447 L27.9214658,32.6626267 L26.0768857,32.6626267 Z M56.9482556,58.8202098 C56.9482556,55.0981621 47.3766436,53.7164765 43.3936651,53.3034785 L42.8328056,34.3048484 L46.2857184,34.3048484 L46.2857184,17.2897907 C46.2857184,13.4749873 43.1543748,10.3717129 39.3049168,10.3717129 L38.8091745,10.3717129 L35.736984,16.0404236 L34.9688451,16.0404236 L31.8967763,10.3717129 L31.401034,10.3717129 C27.5516978,10.3717129 24.4196239,13.4749873 24.4196239,17.2897907 L24.4196239,34.3048484 L27.8730235,34.3048484 L27.3120423,53.3038404 C23.2966878,53.7197332 13.7576952,55.1012982 13.7576952,58.8202098 C13.7576952,62.6985791 24.6214262,64.7277452 35.3529754,64.7277452 C46.0845247,64.7277452 56.9482556,62.6985791 56.9482556,58.8202098 L56.9482556,58.8202098 Z" id="Fill-4" fill="#1D2C35"></path>
                <polygon id="Fill-6" fill="#1D2C35" points="11.5956842 53.5187223 12.7663323 54.6808822 17.6557172 49.8444396 12.7754609 44.9990713 11.6026219 46.15906 14.484573 49.020253 6.78237077 49.0127746 6.78017991 50.6549964 14.4831124 50.6624747"></polygon>
                <polygon id="Fill-8" fill="#1D2C35" points="3.22426032 50.6516794 4.98278843 50.653368 4.98388386 49.0110257 3.22523403 49.0094576"></polygon>
                <polygon id="Fill-10" fill="#1D2C35" points="1.75964788 49.0078896 0.0011197715 49.0062009 2.43428587e-05 50.6485433 1.75855245 50.6501113"></polygon>
                <polygon id="Fill-12" fill="#1D2C35" points="59.1103275 46.16023 57.9396794 44.9980702 53.0501728 49.8343921 57.9305508 54.6797605 59.1031463 53.5197717 56.2214387 50.6585788 63.9230324 50.6661777 63.9253449 49.023956 56.2226559 49.016357"></polygon>
                <polygon id="Fill-14" fill="#1D2C35" points="67.4811428 49.0270921 65.7226147 49.025524 65.721641 50.6678664 67.4801691 50.6693138"></polygon>
                <polygon id="Fill-16" fill="#1D2C35" points="70.7059874 49.029806 68.9468507 49.0281173 68.9457553 50.6704597 70.7048919 50.6720277"></polygon>
                <polygon id="Fill-18" fill="#1D2C35" points="13.7195134 39.5154257 13.7173226 41.1576474 20.6252173 41.1645227 20.6322767 34.318213 18.9752583 34.3160418 18.9714852 38.3594174 13.5307346 32.95655 12.3578956 34.1166594 17.798768 39.5195267"></polygon>
                <polygon id="Fill-20" fill="#1D2C35" points="11.0875027 32.8555561 12.2603416 31.6955674 11.0178821 30.4617601 9.84516491 31.6217488"></polygon>
                <polygon id="Fill-22" fill="#1D2C35" points="9.98273857 29.4338245 8.73991392 28.2004997 7.5671967 29.3606091 8.81002135 30.5938133"></polygon>
                <polygon id="Fill-24" fill="#1D2C35" points="56.9827008 39.5212516 52.9028377 39.5170299 58.3545426 34.1252595 57.1838945 32.962979 51.7319462 38.3552319 51.7362062 34.3128213 50.0790661 34.3107708 50.0720066 41.1565981 56.9805099 41.1634733"></polygon>
                <polygon id="Fill-26" fill="#1D2C35" points="60.8720932 31.6357044 59.7014451 30.4735445 58.4564296 31.7046982 59.6270777 32.866858"></polygon>
                <polygon id="Fill-28" fill="#1D2C35" points="63.1538711 29.3781711 61.9833447 28.2160113 60.7388161 29.4471649 61.9093424 30.6093248"></polygon>
            </g>
        </g>
    </g>
</svg>