<?xml version="1.0" encoding="UTF-8"?>
<svg width="41px" height="41px" viewBox="0 0 41 41" version="1.1" xmlns="http://www.w3.org/2000/svg" xmlns:xlink="http://www.w3.org/1999/xlink">
    <title>1F5C5334-51F7-4E34-9BC4-710EC01D1A06</title>
    <g id="Page-1" stroke="none" stroke-width="1" fill="none" fill-rule="evenodd">
        <g id="Osum-Home-v1" transform="translate(-256.000000, -857.000000)" stroke="#1D2C35" stroke-width="1.15999997">
            <g id="Group-28" transform="translate(257.000000, 857.719029)">
                <path d="M25.2675525,24.9589077 L13.5528235,24.9589077 L13.5528235,22.5617279 C13.5528235,21.9478143 13.8632239,21.3865007 14.3832813,21.060165 L17.4113227,19.1607603 C18.8381383,20.0446958 20.1644806,19.9860189 21.4090532,19.1607603 L24.4364869,21.0604351 C24.9571521,21.3865007 25.2675525,21.9478143 25.2675525,22.5617279 L25.2675525,24.9589077 Z M19.4098504,13.8608606 C20.7971653,13.8608606 21.9255995,14.9892272 21.9255995,16.3764746 C21.9255995,17.1009223 21.6163469,17.7883002 21.0767755,18.2636578 C20.3904105,18.8712243 19.374131,19.0233522 18.5223361,18.719569 C17.3867446,18.2036304 16.9110494,17.3926866 16.8947765,16.3764746 C16.8947765,14.9892272 18.0232106,13.8608606 19.4098504,13.8608606 Z M24.9198797,20.289532 L22.0860326,18.511465 C22.5650365,17.9105158 22.8353961,17.1604096 22.8353961,16.3764746 C22.8353961,14.4875359 21.2988567,12.9509964 19.4098504,12.9509964 C17.5214518,12.9509964 15.9849798,14.4875359 15.9849798,16.3764746 C15.9849798,17.1605446 16.255542,17.9109884 16.7340732,18.5115325 L13.8998885,20.289532 C13.1127125,20.7831882 12.6429593,21.6326198 12.6429593,22.5617279 L12.6429593,25.8687718 L26.1773491,25.8687718 L26.1773491,22.5617279 C26.1773491,21.6323497 25.7071232,20.7829181 24.9198797,20.289532 L24.9198797,20.289532 Z" id="Fill-23" fill="#1A1919"></path>
                <path d="M38.8197682,19.8648162 L38.8197682,18.954952 L34.5208204,18.954952 C34.4961072,18.1274652 34.4081256,17.3011262 34.2503933,16.4932208 L33.3572071,16.6673611 C33.5040683,17.4182775 33.575642,18.1860746 33.6000851,18.954952 L31.3533452,18.954952 L31.3533452,19.8648162 L33.6103485,19.8648162 C33.3737501,27.3395445 27.3398821,33.37348 19.8648162,33.6100785 L19.8648162,31.3529401 L18.954952,31.3529401 L18.954952,33.6100785 C11.4805614,33.3732774 5.44662583,27.3395445 5.20995987,19.8648162 L7.46709822,19.8648162 L7.46709822,18.954952 L5.20995987,18.954952 C5.44662583,11.4801563 11.4805614,5.44642327 18.954952,5.20968978 L18.954952,7.46676061 L19.8648162,7.46676061 L19.8648162,5.210365 C21.8137824,5.27086506 23.6919176,5.71468971 25.4512134,6.54244666 L25.8385893,5.71907867 C23.9572806,4.83399522 21.9488947,4.36127098 19.8648162,4.30050084 L19.8648162,0 L18.954952,0 L18.954952,4.29989313 C10.9788025,4.53736937 4.53763946,10.9784649 4.30016322,18.954952 L-3.83820333e-15,18.954952 L-3.83820333e-15,19.8648162 L4.30016322,19.8648162 C4.53763946,27.8413033 10.9788025,34.2823989 18.954952,34.5199426 L18.954952,38.8197682 L19.8648162,38.8197682 L19.8648162,34.5199426 C27.8415734,34.2824664 34.282669,27.8413033 34.5202127,19.8648162 L38.8197682,19.8648162" id="Fill-24" fill="#1D2C35"></path>
                <polyline id="Fill-25" fill="#1D2C35" points="38.5354315 6.62327095 37.8921457 5.97998517 37.2488599 6.62360856 37.8921457 7.26689435 38.5354315 6.62327095"></polyline>
                <polyline id="Fill-26" fill="#1D2C35" points="37.1203648 8.03901284 36.4770115 7.39572706 35.8337932 8.03901284 36.4770115 8.68229863 37.1203648 8.03901284"></polyline>
                <polyline id="Fill-27" fill="#1D2C35" points="35.1087378 8.76373062 30.9475357 12.9249328 30.9475357 10.5351129 30.0376715 10.5351129 30.0376715 14.4780152 33.9809114 14.4780152 33.9809114 13.568151 31.5908215 13.568151 35.7520236 9.40701641 35.1087378 8.76373062"></polyline>
                <polyline id="Fill-28" fill="#1D2C35" points="34.2013045 2.31871877 33.5580187 1.67543299 32.9147329 2.31871877 33.5580187 2.96200456 34.2013045 2.31871877"></polyline>
                <polyline id="Fill-29" fill="#1D2C35" points="35.6163711 0.903044405 34.9730854 0.259758623 34.3297996 0.903314495 34.9730854 1.54660028 35.6163711 0.903044405"></polyline>
                <polyline id="Fill-30" fill="#1D2C35" points="24.5845635 8.2584606 23.6747669 8.2584606 23.6747669 12.2013629 27.6179393 12.2013629 27.6179393 11.2915662 25.2278493 11.2915662 32.8329633 3.68645225 32.1896775 3.04316647 24.5845635 10.6482804 24.5845635 8.2584606"></polyline>
            </g>
        </g>
    </g>
</svg>