<?xml version="1.0" encoding="UTF-8"?>
<svg width="141px" height="108px" viewBox="0 0 141 108" version="1.1" xmlns="http://www.w3.org/2000/svg" xmlns:xlink="http://www.w3.org/1999/xlink">
    <title>Artboard Copy</title>
    <g id="Artboard-Copy" stroke="none" stroke-width="1" fill="none" fill-rule="evenodd">
        <path d="M60.2961012,59.7615282 L49.1156755,59.7615282 C47.9277552,59.7615282 46.949468,59.0587173 46.530202,57.9342199 C46.110936,56.8097225 46.3904467,55.614944 47.2289786,54.841852 L96.3529742,9.72139382 C97.4011391,8.80773968 98.9384477,8.73745859 99.9866126,9.65111273 C101.034778,10.5647669 101.314288,12.0406697 100.615512,13.2354482 L81.7485431,45.0024998 L92.9289688,45.0024998 C94.1168891,45.0024998 95.0951763,45.7053107 95.5144423,46.759527 C95.9337083,47.8137433 95.7240753,49.0085218 94.8855434,49.8518948 L44.7133828,98.2052831 C43.7350956,99.1892183 42.1279094,99.2594994 41.0797445,98.4161263 C39.9617019,97.5727533 39.6821912,96.0265694 40.3809679,94.8317909 L60.2961012,59.7615282 L60.2961012,59.7615282 Z M62.7418193,61.1671499 L42.6869307,96.1671315 L92.9289688,47.8137433 L81.8184208,47.8137433 C80.7702559,47.8137433 79.9317239,47.3217757 79.3727026,46.4081215 C78.883559,45.4944674 78.883559,44.4402511 79.3727026,43.596878 L98.2396711,11.8298264 L49.1156755,56.9502847 L60.2961012,56.9502847 C61.3442661,56.9502847 62.1827981,57.4422523 62.7418193,58.3559064 C63.230963,59.2695606 63.230963,60.2534958 62.7418193,61.1671499 Z" id="XMLID_6_" stroke="#1D2C35" fill="#1D2C35" fill-rule="nonzero"></path>
    </g>
</svg>