<?xml version="1.0" encoding="UTF-8"?>
<svg width="44px" height="44px" viewBox="0 0 44 44" version="1.1" xmlns="http://www.w3.org/2000/svg" xmlns:xlink="http://www.w3.org/1999/xlink">
    <title>fixed-pricing</title>
    <defs>
        <polygon id="path-1" points="1.07347059e-05 0.0308199259 36.3445251 0.0308199259 36.3445251 17.8413529 1.07347059e-05 17.8413529"></polygon>
        <polygon id="path-3" points="0.032898663 0.0196688062 36.3520438 0.0196688062 36.3520438 17.7992615 0.032898663 17.7992615"></polygon>
    </defs>
    <g id="Page-1" stroke="none" stroke-width="1" fill="none" fill-rule="evenodd">
        <g id="Mobile-App-LP" transform="translate(-176.000000, -1005.000000)">
            <g id="fixed-pricing" transform="translate(176.000000, 1005.000000)">
                <rect id="Rectangle-Copy-16" x="0" y="0" width="44" height="44"></rect>
                <g id="Group-9-Copy-2" transform="translate(2.000000, 5.000000)">
                    <g id="Group-3" transform="translate(0.000000, 16.632000)">
                        <mask id="mask-2" fill="white">
                            <use xlink:href="#path-1"></use>
                        </mask>
                        <g id="Clip-2"></g>
                        <path d="M35.788554,5.27927753 C35.3623146,5.13757126 34.8975019,5.36449207 34.7523329,5.78540669 C33.4192255,9.67266653 30.6316371,12.8144051 26.9036169,14.6303369 C23.1756324,16.4477878 18.9510605,16.7206015 15.0172917,15.4058528 C9.3940592,13.5221946 5.34041956,8.55975473 4.58211994,2.8107762 L6.33992803,4.2672312 L7.39042635,3.0299952 L3.99768677,0.219328521 C3.64970339,-0.0660624671 3.13561832,-0.0234198671 2.84646113,0.320193992 L1.07347059e-05,3.66832702 L1.25164166,4.70552789 L2.92167563,2.7414599 C3.66555497,9.21087579 8.18876642,14.8225996 14.4934381,16.9349098 C16.3057069,17.5402086 18.1704685,17.8413565 20.0303636,17.8413565 C22.6344243,17.8413565 25.2241721,17.2502601 27.6284242,16.0773589 C31.7476529,14.070613 34.8273327,10.599569 36.3009573,6.30397179 C36.4461979,5.88153802 36.2164036,5.42426944 35.788554,5.27927753" id="Fill-1" fill="#1D2C35" mask="url(#mask-2)"></path>
                    </g>
                    <g id="Group-6" transform="translate(3.696000, 0.000000)">
                        <mask id="mask-4" fill="white">
                            <use xlink:href="#path-3"></use>
                        </mask>
                        <g id="Clip-5"></g>
                        <path d="M35.1004451,13.1254276 L33.4527035,15.0643057 C32.6928294,8.61241322 28.1839667,3.02736316 21.8839825,0.918126621 C12.9113786,-2.08314224 3.12272236,2.68042834 0.0764990924,11.5474748 C-0.0688488253,11.9700499 0.161124357,12.4287316 0.589117081,12.5720984 C1.0152849,12.7170549 1.48149318,12.4869192 1.62519511,12.0676297 C4.3791839,4.04414363 13.2290901,-0.273569767 21.3602362,2.44718356 C26.9928795,4.33246696 31.0371084,9.29013733 31.795408,15.040635 L30.0121587,13.5651375 L28.9616604,14.8011369 L32.354221,17.6118036 C32.5074769,17.7378236 32.6942965,17.7992615 32.879506,17.7992615 C33.112628,17.7992615 33.3441041,17.7015403 33.5053393,17.5123867 L36.352076,14.1625932 L35.1004451,13.1254276 Z" id="Fill-4" fill="#1D2C35" mask="url(#mask-4)"></path>
                    </g>
                    <path d="M10.3901033,17.093928 C10.3901033,22.5557222 14.7444862,26.9989992 20.0970529,26.9989992 C25.4496549,26.9989992 29.8040379,22.5557222 29.8040379,17.093928 C29.8040379,11.6321337 25.4496549,7.18885675 20.0970529,7.18885675 C14.7444862,7.18885675 10.3901033,11.6321337 10.3901033,17.093928 M8.778,17.093928 C8.778,10.726269 13.8551497,5.544 20.0970529,5.544 C26.3390267,5.544 31.416,10.726269 31.416,17.093928 C31.416,23.461767 26.3390267,28.644 20.0970529,28.644 C13.8551497,28.644 8.778,23.461767 8.778,17.093928 M16.8917932,16.1525646 C16.4699176,15.6947899 16.2573392,15.1020769 16.2573392,14.3759379 C16.2573392,13.4989113 16.6163409,12.8177397 17.3389313,12.3358071 C17.9025023,11.9566624 18.6266098,11.7286211 19.5051145,11.6451307 L19.5051145,10.2634539 L20.5709706,10.2634539 L20.5709706,11.6161845 C21.6919029,11.6514672 22.7592055,11.8925055 23.7666686,12.3406315 L23.0488415,13.9776396 C21.9215935,13.521413 20.9724528,13.2933357 20.2056179,13.2933357 C19.0328199,13.2933357 18.4487143,13.6209966 18.4487143,14.2731501 C18.4487143,14.5942944 18.6014885,14.865863 18.9053081,15.08926 C19.2107507,15.3108208 19.8781236,15.6145038 20.9077442,16.0048094 C21.7672668,16.3309941 22.3954759,16.6312929 22.7827038,16.9011694 C23.176318,17.1741781 23.4644368,17.4858897 23.6564101,17.8408766 C23.8438673,18.1958996 23.9382133,18.6199757 23.9382133,19.1132131 C23.9382133,20.1124329 23.5668273,20.878715 22.8220441,21.4135716 C22.2585436,21.8167302 21.5061041,22.0689293 20.5709706,22.1668927 L20.5709706,23.924294 L19.5051145,23.924294 L19.5051145,22.210384 C18.1685694,22.1974951 17.0933988,21.9934316 16.2746983,21.5917851 L16.2746983,19.7156108 C17.5026432,20.2698009 18.6472149,20.5476699 19.7065084,20.5476699 C21.0714914,20.5476699 21.7547415,20.1429272 21.7547415,19.33481 C21.7547415,19.0762383 21.6791306,18.86105 21.5264975,18.6874089 C21.3769693,18.5154958 21.1297785,18.3356262 20.7833726,18.1508962 C20.4354849,17.964654 19.9522879,17.7557662 19.3349812,17.5228645 C18.1306758,17.0650898 17.3199845,16.6088272 16.8917932,16.1525646" id="Fill-7" fill="#1D2C35"></path>
                </g>
            </g>
        </g>
    </g>
</svg>