<?xml version="1.0" encoding="UTF-8"?>
<svg width="141px" height="108px" viewBox="0 0 141 108" version="1.1" xmlns="http://www.w3.org/2000/svg" xmlns:xlink="http://www.w3.org/1999/xlink">
    <title>Artboard Copy 4</title>
    <defs>
        <polygon id="path-1" points="2.55588235e-05 0.073380776 86.5345835 0.073380776 86.5345835 42.4794118 2.55588235e-05 42.4794118"></polygon>
        <polygon id="path-3" points="0.0783301499 0.0468304909 86.5524852 0.0468304909 86.5524852 42.379194 0.0783301499 42.379194"></polygon>
    </defs>
    <g id="Artboard-Copy-4" stroke="none" stroke-width="1" fill="none" fill-rule="evenodd">
        <g id="Group-9" transform="translate(22.000000, 13.000000)">
            <g id="Group-3" transform="translate(0.000000, 39.600000)">
                <mask id="mask-2" fill="white">
                    <use xlink:href="#path-1"></use>
                </mask>
                <g id="Clip-2"></g>
                <path d="M85.2108429,12.5697084 C84.1959872,12.2323125 83.0892902,12.7726002 82.7436497,13.7747778 C79.5695846,23.0301584 72.9324693,30.5104884 64.0562307,34.8341355 C55.1800772,39.1613996 45.1215726,39.8109561 35.7554565,36.6806019 C22.3668076,32.1957014 12.7152847,20.3803684 10.9098094,6.69232429 L15.0950667,10.1600743 L17.5962532,7.21427429 L9.51830183,0.522210765 C8.68976997,-0.157291588 7.46575791,-0.0557615882 6.7772884,0.762366647 L2.55588235e-05,8.73411194 L2.98009919,11.2036378 L6.95637056,6.52728547 C8.72751183,21.9306566 19.4970629,35.2919037 34.508186,40.3212137 C38.8231117,41.7624014 43.2630202,42.4794202 47.6913419,42.4794202 C53.8914865,42.4794202 60.0575527,41.0720478 65.7819624,38.2794261 C75.5896498,33.5014596 82.9222207,25.237069 86.4308508,15.0094566 C86.7766616,14.0036619 86.2295324,12.9149272 85.2108429,12.5697084" id="Fill-1" fill="#1D2C35" mask="url(#mask-2)"></path>
            </g>
            <g id="Group-6" transform="translate(8.800000, 0.000000)">
                <mask id="mask-4" fill="white">
                    <use xlink:href="#path-3"></use>
                </mask>
                <g id="Clip-5"></g>
                <path d="M83.5724882,31.2510181 L79.649294,35.8673946 C77.8400701,20.5057458 67.1046827,7.20800753 52.1047203,2.18601576 C30.7413777,-4.95986247 7.43505325,6.38197224 0.182140696,27.4939875 C-0.163925775,28.5001187 0.383629422,29.5922181 1.40265972,29.9335675 C2.41734501,30.2787022 3.52736472,29.7307599 3.86951217,28.7324516 C10.4266283,9.62891341 31.4978336,-0.651356588 50.8577053,5.82662753 C64.2687608,10.3153975 73.8978772,22.1193746 75.7033525,35.8110358 L71.4575207,32.2979464 L68.9563342,35.2408022 L77.0338596,41.9328658 C77.3987544,42.2329134 77.8435631,42.379194 78.284538,42.379194 C78.8395905,42.379194 79.3907239,42.1465246 79.7746175,41.6961587 L86.5525619,33.7204599 L83.5724882,31.2510181 Z" id="Fill-4" fill="#1D2C35" mask="url(#mask-4)"></path>
            </g>
            <path d="M24.7383411,40.6998286 C24.7383411,53.7041006 35.1059196,64.2833315 47.850126,64.2833315 C60.5944165,64.2833315 70.9619949,53.7041006 70.9619949,40.6998286 C70.9619949,27.6955565 60.5944165,17.1163256 47.850126,17.1163256 C35.1059196,17.1163256 24.7383411,27.6955565 24.7383411,40.6998286 M20.9,40.6998286 C20.9,25.5387358 32.9884517,13.2 47.850126,13.2 C62.7119684,13.2 74.8,25.5387358 74.8,40.6998286 C74.8,55.8613499 62.7119684,68.2 47.850126,68.2 C32.9884517,68.2 20.9,55.8613499 20.9,40.6998286 M40.2185553,38.4584871 C39.2140896,37.3685473 38.7079504,35.957326 38.7079504,34.2284235 C38.7079504,32.1402651 39.5627165,30.5184278 41.2831697,29.3709693 C42.6250056,28.4682437 44.349071,27.9252883 46.4407489,27.7265018 L46.4407489,24.4367951 L48.9785013,24.4367951 L48.9785013,27.6575822 C51.6473879,27.7415886 54.1885846,28.3154893 56.5873063,29.3824559 L54.878194,33.2800944 C52.1942703,32.1938406 49.9344113,31.6507994 48.108614,31.6507994 C45.3162379,31.6507994 43.9255102,32.4309443 43.9255102,33.9836906 C43.9255102,34.74832 44.2892584,35.3949119 45.0126384,35.9268094 C45.7398827,36.4543351 47.3288657,37.17739 49.7803434,38.106689 C51.8268258,38.8833194 53.3225616,39.5983164 54.244533,40.2408795 C55.1817095,40.8909002 55.8677066,41.6330708 56.324786,42.4782777 C56.7711125,43.3235704 56.9957459,44.3332756 56.9957459,45.5076503 C56.9957459,47.8867451 56.1114935,49.7112263 54.3382002,50.9846943 C52.9965324,51.9445957 51.2050097,52.5450698 48.9785013,52.7783161 L48.9785013,56.9626049 L46.4407489,56.9626049 L46.4407489,52.8818668 C43.2584986,52.8511787 40.6985685,52.3653133 38.7492816,51.4090122 L38.7492816,46.9419306 C41.6729599,48.2614306 44.3981308,48.9230237 46.920258,48.9230237 C50.1702176,48.9230237 51.7970035,47.9593506 51.7970035,46.0352618 C51.7970035,45.4196151 51.6169776,44.907262 51.2535654,44.4938306 C50.8975459,44.0845138 50.3089963,43.6562528 49.4842205,43.2164194 C48.6559164,42.7729858 47.5054473,42.2756338 46.0356696,41.721106 C43.1682756,40.6311662 41.2380582,39.5448267 40.2185553,38.4584871" id="Fill-7" fill="#1D2C35"></path>
        </g>
    </g>
</svg>