<?xml version="1.0" encoding="UTF-8"?>
<svg width="49px" height="49px" viewBox="0 0 49 49" version="1.1" xmlns="http://www.w3.org/2000/svg" xmlns:xlink="http://www.w3.org/1999/xlink">
    <title>food_cookies</title>
    <g id="Page-1" stroke="none" stroke-width="1" fill="none" fill-rule="evenodd">
        <g id="Cookies-&amp;-Notifications" transform="translate(-665.000000, -873.000000)" fill="#FFFFFF" fill-rule="nonzero">
            <g id="food_cookies" transform="translate(665.000000, 873.000000)">
                <path d="M45.9591,12.9789 C45.9591,12.7281 45.99045,12.50865 46.05524,12.31428 C46.19736,11.86075 46.2726,11.42394 46.2726,11.0143 C46.2726,8.98909 44.88693,7.2732 42.90352,6.83848 C42.07379,6.65456 41.41753,6.00039 41.23361,5.16857 C40.71111,2.78179 38.40584,1.17876 35.76617,2.01267 C34.94689,2.26974 34.03774,2.02521 33.47135,1.41911 C31.87877,-0.38456 28.71033,-0.36366 27.16164,1.39612 C26.5639,2.03566 25.53144,2.24048 24.85428,2.01476 C22.16445,1.16831 19.90098,2.78179 19.37848,5.16857 C19.19456,5.9983 18.5383,6.65456 17.70857,6.83639 C15.72307,7.27111 14.3374,8.98909 14.3374,11.0143 C14.3374,11.42394 14.41055,11.86075 14.55685,12.32891 C14.61955,12.50865 14.6509,12.7281 14.6509,12.9789 C14.6509,13.43243 14.48997,13.86924 14.20991,14.25798 C13.66024,14.62791 12.958,14.75331 12.32055,14.54849 C9.97557,13.80445 7.36307,15.33224 6.84057,17.71275 C6.65874,18.54457 6.00457,19.20083 5.16857,19.38266 C3.99399,19.63973 2.97825,20.38377 2.37842,21.42668 C1.77859,22.46541 1.64274,23.71941 2.0064,24.86264 C2.26556,25.67565 2.02521,26.57017 1.39403,27.14701 C0.50787,27.95166 0,29.10325 0,30.305 C0,31.50675 0.50787,32.65834 1.39612,33.46926 C2.0273,34.04192 2.26765,34.93853 2.00849,35.75154 C1.64483,36.89477 1.78068,38.14668 2.38051,39.1875 C2.98034,40.22832 3.99608,40.97236 5.17275,41.23152 C6.00457,41.41335 6.66083,42.06752 6.84266,42.90352 C7.36516,45.28403 9.97766,46.816 12.32055,46.06569 C13.12311,45.80862 14.03644,46.05524 14.60492,46.67806 C15.41166,47.56213 16.56325,48.07 17.765,48.07 C18.96675,48.07 20.11834,47.56213 20.92926,46.67388 C21.49356,46.05106 22.40689,45.80444 23.21154,46.06151 C25.55443,46.81182 28.16693,45.27985 28.68943,42.89725 C28.87126,42.06543 29.52543,41.40917 30.36143,41.22734 C31.53601,40.97027 32.55175,40.22623 33.15158,39.18332 C33.75141,38.14459 33.88726,36.89059 33.5236,35.74736 C33.31669,35.09946 33.44,34.40558 33.81411,33.85591 C34.42439,33.42328 35.20814,33.33132 35.7599,33.51106 C38.44764,34.35542 40.71111,32.74403 41.2357,30.35725 C41.41962,29.52752 42.07379,28.87126 42.90561,28.68734 C44.88902,28.25262 46.27469,26.53673 46.27469,24.51152 C46.27469,24.10188 46.20154,23.66507 46.05524,23.19691 C45.99463,23.01508 45.96328,22.79772 45.96328,22.54483 C45.96328,21.92828 46.22453,21.32845 46.65507,20.92508 C47.55377,20.13506 48.07,18.98138 48.07,17.765 C48.07,16.54862 47.55377,15.39494 46.67388,14.62164 C46.22035,14.19528 45.9591,13.59545 45.9591,12.9789 Z M31.33955,38.1425 C31.02814,38.68172 30.52027,39.05374 29.91208,39.1875 C28.28397,39.5428 27.00071,40.82397 26.64541,42.45208 C26.37998,43.67055 25.05492,44.45639 23.84063,44.06974 C22.27522,43.56814 20.48618,44.05093 19.38057,45.26522 C18.54039,46.18691 16.98334,46.18691 16.14525,45.26522 C15.33433,44.37697 14.18274,43.86701 12.98099,43.86701 C12.54,43.86701 12.10319,43.93389 11.6831,44.06974 C10.4709,44.45221 9.14584,43.66846 8.87832,42.45417 C8.52302,40.82606 7.24185,39.5428 5.61374,39.1875 C5.00346,39.05374 4.49768,38.68172 4.18418,38.1425 C3.87277,37.60119 3.8038,36.97628 3.99399,36.38272 C4.49977,34.79432 4.03161,33.0429 2.79851,31.92266 C2.34289,31.50257 2.09,30.92991 2.09,30.305 C2.09,29.68009 2.34289,29.10743 2.80478,28.68943 C4.03788,27.5671 4.50604,25.81568 4.00026,24.22728 C3.81007,23.63372 3.87695,23.00881 4.19045,22.4675 C4.50186,21.92828 5.00973,21.55626 5.61792,21.4225 C7.24603,21.0672 8.52929,19.78603 8.88459,18.15792 C9.15211,16.94154 10.48135,16.15779 11.68937,16.54026 C12.96636,16.9499 14.37084,16.67611 15.45346,15.91326 C15.58722,15.84638 15.71053,15.75651 15.81085,15.63111 C15.81503,15.62484 15.81921,15.61648 15.82339,15.61021 C15.92789,15.51616 16.05329,15.44928 16.14943,15.34478 C16.98961,14.42309 18.54666,14.42309 19.38475,15.34478 C20.49036,16.55907 22.28149,17.04395 23.8469,16.54026 C25.05701,16.15361 26.38416,16.93945 26.65168,18.15583 C27.00698,19.78394 28.28815,21.0672 29.91626,21.4225 C30.52654,21.55626 31.03232,21.92828 31.34582,22.4675 C31.65723,23.00881 31.7262,23.63372 31.53601,24.22728 C31.03023,25.81568 31.49839,27.5671 32.73149,28.68734 C33.18711,29.10743 33.44,29.68009 33.44,30.305 C33.44,30.92991 33.18711,31.50257 32.72522,31.92057 C32.61654,32.0188 32.54757,32.14629 32.45143,32.25497 C32.44725,32.25706 32.44307,32.25915 32.44098,32.26124 C32.31976,32.35738 32.22989,32.47651 32.16301,32.60818 C31.38553,33.69289 31.11592,35.08274 31.53183,36.38272 C31.71993,36.97628 31.65305,37.60119 31.33955,38.1425 Z M45.24432,19.38475 C44.36861,20.20612 43.8691,21.35771 43.8691,22.5511 C43.8691,23.02762 43.93598,23.46652 44.06347,23.84899 C44.1408,24.09352 44.1826,24.32551 44.1826,24.5157 C44.1826,25.55025 43.472,26.42805 42.45417,26.64959 C40.83024,27.00698 39.54907,28.28606 39.19168,29.91208 C38.97014,30.92991 38.09234,31.64051 37.05779,31.64051 C36.86551,31.64051 36.63561,31.59871 36.40362,31.52556 C36.08803,31.42106 35.74318,31.36672 35.38579,31.34791 C35.47148,31.01142 35.53,30.66239 35.53,30.305 C35.53,29.10325 35.02213,27.95166 34.13388,27.14074 C33.5027,26.56808 33.26235,25.67147 33.52151,24.85846 C33.88517,23.71523 33.74932,22.46332 33.14949,21.4225 C32.54966,20.38168 31.53392,19.63764 30.35725,19.37848 C29.52543,19.19665 28.86917,18.54248 28.68734,17.70648 C28.16484,15.32806 25.55234,13.80236 23.20945,14.54431 C22.4048,14.80138 21.49147,14.55476 20.92508,13.93194 C19.87172,12.77408 18.19554,12.38534 16.70328,12.73855 C16.68447,12.36444 16.64894,11.99242 16.54653,11.68101 C16.4692,11.43648 16.4274,11.20449 16.4274,11.0143 C16.4274,9.97975 17.138,9.10195 18.15583,8.88041 C19.77976,8.52302 21.06093,7.24394 21.41832,5.61792 C21.63986,4.598 22.51766,3.8874 23.5543,3.8874 C23.74658,3.8874 23.97648,3.9292 24.20847,4.00235 C25.59832,4.46424 27.52948,4.05878 28.70824,2.80269 C29.50453,1.89563 31.09084,1.87682 31.92266,2.82359 C33.04917,4.0337 34.80059,4.50186 36.39108,4.00653 C36.63352,3.9292 36.86551,3.8874 37.0557,3.8874 C38.09025,3.8874 38.96805,4.598 39.18959,5.61583 C39.54698,7.23976 40.82606,8.52093 42.45208,8.87832 C43.472,9.09986 44.1826,9.97766 44.1826,11.0143 C44.1826,11.20658 44.1408,11.43648 44.06765,11.66847 C43.93598,12.06348 43.8691,12.50447 43.8691,12.98099 C43.8691,14.17229 44.36861,15.32597 45.26731,16.16824 C45.72084,16.56534 45.98,17.14845 45.98,17.765 C45.98,18.38155 45.72084,18.96466 45.24432,19.38475 Z" id="Shape"></path>
                <path d="M29.57141,12.85141 C29.3645,13.0416 29.26,13.3133 29.26,13.585 C29.26,13.8567 29.3645,14.1284 29.57141,14.33531 C29.7616,14.5255 30.0333,14.63 30.305,14.63 C30.5767,14.63 30.8275,14.5255 31.05531,14.3165 C31.2455,14.1284 31.35,13.8567 31.35,13.585 C31.35,13.3133 31.2455,13.0416 31.0365,12.8326 C30.6394,12.4564 29.9497,12.4564 29.57141,12.85141 Z" id="Path"></path>
                <path d="M33.75141,17.03141 C33.5445,17.2216 33.44,17.4933 33.44,17.765 C33.44,18.0367 33.5445,18.3084 33.75141,18.51531 C33.9416,18.7055 34.2133,18.81 34.485,18.81 C34.7567,18.81 35.0284,18.7055 35.2165,18.4965 C35.4255,18.3084 35.53,18.0367 35.53,17.765 C35.53,17.4933 35.4255,17.2216 35.2165,17.03141 C34.8403,16.6364 34.1297,16.6364 33.75141,17.03141 Z" id="Path"></path>
                <path d="M17.03141,25.39141 C16.8245,25.5816 16.72,25.8533 16.72,26.125 C16.72,26.3967 16.8245,26.6684 17.0126,26.8565 C17.2216,27.0655 17.4933,27.17 17.765,27.17 C18.0367,27.17 18.3084,27.0655 18.4965,26.8565 C18.7055,26.6684 18.81,26.3967 18.81,26.125 C18.81,25.8533 18.7055,25.5816 18.4965,25.39141 C18.1203,24.9964 17.38671,24.9964 17.03141,25.39141 Z" id="Path"></path>
                <path d="M17.03141,33.75141 C16.8245,33.9416 16.72,34.2133 16.72,34.485 C16.72,34.7567 16.8245,35.0284 17.03141,35.2165 C17.2216,35.4255 17.4933,35.53 17.765,35.53 C18.0367,35.53 18.3084,35.4255 18.4965,35.2165 C18.7055,35.0284 18.81,34.7567 18.81,34.485 C18.81,34.2133 18.7055,33.9416 18.4965,33.7326 C18.0994,33.3564 17.4306,33.3564 17.03141,33.75141 Z" id="Path"></path>
                <path d="M21.21141,29.57141 C21.0045,29.7616 20.9,30.0333 20.9,30.305 C20.9,30.5767 21.0045,30.8484 21.1926,31.0365 C21.4016,31.2455 21.6733,31.35 21.945,31.35 C22.2167,31.35 22.4884,31.2455 22.69531,31.0365 C22.8855,30.8484 22.99,30.5767 22.99,30.305 C22.99,30.0333 22.8855,29.7825 22.6765,29.57141 C22.3003,29.1764 21.56671,29.1764 21.21141,29.57141 Z" id="Path"></path>
                <path d="M12.85141,29.57141 C12.6445,29.7616 12.54,30.0333 12.54,30.305 C12.54,30.5767 12.6445,30.8484 12.85141,31.0365 C13.0416,31.2455 13.3133,31.35 13.585,31.35 C13.8567,31.35 14.1284,31.2455 14.33531,31.0365 C14.5255,30.8484 14.63,30.5767 14.63,30.305 C14.63,30.0333 14.5255,29.7616 14.3165,29.5526 C13.9194,29.1555 13.2297,29.1764 12.85141,29.57141 Z" id="Path"></path>
            </g>
        </g>
    </g>
</svg>