<?xml version="1.0" encoding="UTF-8"?>
<svg width="141px" height="108px" viewBox="0 0 141 108" version="1.1" xmlns="http://www.w3.org/2000/svg" xmlns:xlink="http://www.w3.org/1999/xlink">
    <title>Artboard Copy 5</title>
    <defs>
        <polygon id="path-1" points="0 0.562758557 67.9817702 0.562758557 67.9817702 68.8214286 0 68.8214286"></polygon>
        <polygon id="path-3" points="0 73 99 73 99 0 0 0"></polygon>
    </defs>
    <g id="Artboard-Copy-5" stroke="none" stroke-width="1" fill="none" fill-rule="evenodd">
        <g id="Group-9" transform="translate(21.000000, 18.000000)">
            <g id="Group-3" transform="translate(0.000000, 4.000000)">
                <mask id="mask-2" fill="white">
                    <use xlink:href="#path-1"></use>
                </mask>
                <g id="Clip-2"></g>
                <path d="M27.8574298,46.8064572 L27.9616,46.4006975 L27.9847489,46.2558858 C28.1836851,44.0650703 28.169217,42.3918493 28.1540255,40.6196975 C28.1489617,40.1307786 28.1446213,39.6303895 28.1446213,39.1034754 L28.1446213,37.8130737 L27.0443234,37.2481644 C26.560366,36.879683 24.5984936,33.8063761 24.2744085,30.7954386 L24.0870468,29.0426429 L22.3769191,28.9107351 C22.1910043,28.826859 21.607217,28.1314758 21.3612596,26.1033943 C21.2361106,25.0717898 21.6730468,24.7463218 21.6376,24.7563583 L22.8710043,24.0064914 L22.6337277,22.5978028 C22.6185362,22.5046071 21.1695574,13.2359379 25.4947915,8.17684598 C27.3980681,5.95018601 30.2562383,4.82180134 33.9911745,4.82180134 C37.7217702,4.82180134 40.5784936,5.94875223 42.4824936,8.17254464 C46.8062809,13.2230339 45.3630894,22.5046071 45.3486213,22.5949353 L45.1135149,24.009359 L46.294834,24.7248151 C46.3136426,24.7391529 46.7440681,25.0861276 46.6196426,26.1048281 C46.3736851,28.1336265 45.7891745,28.8282928 45.6640255,28.8992649 L43.8916851,29.0440766 L43.7050468,30.7961555 C43.3853021,33.7733992 41.5276,36.8122954 41.0320681,37.2409955 L39.9252596,37.817375 L39.9252596,39.1049092 C39.9252596,39.5651525 39.9209191,40.0038891 39.9173021,40.4318724 L39.9151319,40.6519576 C39.899217,42.4104885 39.8833021,44.0722392 40.0829617,46.2587533 L40.1676,46.6716819 L40.208834,46.807891 C41.7178553,50.8303601 46.113983,52.5508958 50.7756,54.3753806 C56.446366,56.5948717 61.8212596,58.6996603 63.226834,64.5631027 L4.75406809,64.5631027 C6.16325957,58.7025279 11.5605787,56.5963054 17.258834,54.3732299 C21.9327489,52.5530465 26.3469617,50.8325108 27.8574298,46.8064572 M52.3439404,50.4095458 C48.5771745,48.9363371 45.3131745,47.6581224 44.3322383,45.5569182 C44.1817702,43.7474881 44.1947915,42.3273292 44.209983,40.6913865 L44.2150468,40.0784457 C45.6951319,38.5005711 47.1578553,35.4157939 47.7553872,32.5976998 C49.0394298,31.8729241 50.4435574,30.2419996 50.8841106,26.6123862 C51.0931745,24.9054714 50.6764936,23.3082407 49.7360681,22.1447284 C50.0594298,19.0685539 50.3987064,10.8443932 45.7645787,5.42470573 C43.0069617,2.19798438 39.0456,0.562758557 33.9904511,0.562758557 C28.9345787,0.562758557 24.973217,2.19798438 22.2156,5.42470573 C17.5829191,10.8422426 17.9214723,19.0678371 18.2441106,22.1447284 C17.3036851,23.3075238 16.8862809,24.9040376 17.0938979,26.6109524 C17.5351745,30.2434334 18.9407489,31.8743579 20.2240681,32.5991336 C20.8310043,35.4179446 22.3298979,38.5084568 23.8526638,40.0942173 L23.8562809,40.6705967 C23.8707489,42.3137083 23.8823234,43.7403192 23.7318553,45.557635 C22.7516426,47.6566886 19.4782383,48.9341864 15.6854298,50.4131302 C9.38819574,52.8684781 0.762323404,56.2306916 0.138025532,66.5639423 L-0.00014468085,68.8214286 L67.9817702,68.8214286 L67.8421532,66.5632254 C67.2149617,56.2299747 58.622366,52.8670443 52.3439404,50.4095458" id="Fill-1" fill="#1D2C35" mask="url(#mask-2)"></path>
            </g>
            <mask id="mask-4" fill="white">
                <use xlink:href="#path-3"></use>
            </mask>
            <g id="Clip-5"></g>
            <polygon id="Fill-4" fill="#1D2C35" mask="url(#mask-4)" points="86 18 91 18 91 13 86 13"></polygon>
            <polygon id="Fill-6" fill="#1D2C35" mask="url(#mask-4)" points="75 18 80 18 80 13 75 13"></polygon>
            <polygon id="Fill-7" fill="#1D2C35" mask="url(#mask-4)" points="64 18 69 18 69 13 64 13"></polygon>
            <path d="M60.7814245,27.678327 C59.8136752,27.678327 59.0264387,26.8854564 59.0264387,25.910781 L59.0264387,5.80260091 C59.0264387,4.83946872 59.804363,4.05597691 60.7606512,4.05597691 L93.2371998,4.05597691 C94.193488,4.05597691 94.9714123,4.83946872 94.9714123,5.80260091 L94.9714123,25.9959118 C94.9714123,26.9236931 94.2228571,27.678327 93.3009524,27.678327 L72.3292308,27.678327 L65.2720391,33.9960413 L65.2720391,27.678327 L60.7814245,27.678327 Z M93.2386325,0 L60.7613675,0 C57.5844851,0 55,2.60298198 55,5.80260091 L55,25.910781 C55,29.1212217 57.5945136,31.7343039 60.7828571,31.7343039 L61.2456003,31.7343039 L61.2456003,35.7102002 C61.2456003,37.0232343 61.9848433,38.1717785 63.1739357,38.7092567 C63.6022955,38.9026046 64.0535775,39 64.5163207,39 C65.3085714,39 66.0764672,38.7042066 66.6760277,38.1667283 L73.8600081,31.7335824 L93.302385,31.7335824 C96.4441677,31.7335824 99,29.1594584 99,25.9959118 L99,5.80260091 C99,2.60298198 96.4147985,0 93.2386325,0 L93.2386325,0 Z" id="Fill-8" fill="#1D2C35" mask="url(#mask-4)"></path>
        </g>
    </g>
</svg>