<?xml version="1.0" encoding="UTF-8"?>
<svg width="44px" height="44px" viewBox="0 0 44 44" version="1.1" xmlns="http://www.w3.org/2000/svg" xmlns:xlink="http://www.w3.org/1999/xlink">
    <title>free-consultation</title>
    <defs>
        <polygon id="path-1" points="0 0.250427558 29.2760204 0.250427558 29.2760204 30.6255357 0 30.6255357"></polygon>
        <polygon id="path-3" points="0 32.485 43.076 32.485 43.076 0 0 0"></polygon>
        <polygon id="path-5" points="0 32.485 43.076 32.485 43.076 0 0 0"></polygon>
        <polygon id="path-7" points="0 32.485 43.076 32.485 43.076 0 0 0"></polygon>
        <polygon id="path-9" points="0 32.485 43.076 32.485 43.076 0 0 0"></polygon>
    </defs>
    <g id="Page-1" stroke="none" stroke-width="1" fill="none" fill-rule="evenodd">
        <g id="free-consultation">
            <rect id="Rectangle" x="0" y="0" width="44" height="44"></rect>
            <g id="Group-9-Copy" transform="translate(0.000000, 5.000000)">
                <g id="Fill-1-Clipped" transform="translate(0.000000, 2.000000)">
                    <mask id="mask-2" fill="white">
                        <use xlink:href="#path-1"></use>
                    </mask>
                    <g id="path-1"></g>
                    <path d="M11.9966674,20.8288735 L12.0415277,20.6483104 L12.0514967,20.5838692 C12.1371676,19.6089563 12.130937,18.864373 12.1243949,18.0757654 C12.1222142,17.8581965 12.120345,17.6355233 12.120345,17.4010466 L12.120345,16.8268178 L11.646507,16.5754332 C11.4380931,16.411459 10.5932223,15.0438374 10.4536566,13.7039702 L10.3729701,12.9239761 L9.63651195,12.8652771 C9.5564486,12.8279523 9.30504345,12.5185067 9.19912307,11.6160105 C9.14522829,11.1569465 9.33339274,11.0121132 9.31812774,11.0165794 L9.84928732,10.6828887 L9.74710529,10.0560223 C9.74056316,10.0145502 9.11656748,5.88999235 10.9792086,3.63869646 C11.7988455,2.64783278 13.0297026,2.1457016 14.6381348,2.1457016 C16.2446978,2.1457016 17.474932,2.64719474 18.2948804,3.63678237 C20.1568984,5.88425007 19.535395,10.0145502 19.5291644,10.0547462 L19.4279169,10.6841648 L19.9366462,11.0025427 C19.944746,11.008923 20.1301067,11.1633268 20.0765235,11.6166485 C19.9706031,12.5194638 19.7188864,12.8285903 19.6649917,12.8601729 L18.9017418,12.9246141 L18.8213669,13.7042892 C18.6836704,15.0291626 17.88366,16.3814714 17.6702616,16.572243 L17.1936198,16.8287319 L17.1936198,17.4016846 C17.1936198,17.6064929 17.1917506,17.8017307 17.190193,17.9921832 L17.1892584,18.0901211 C17.1824048,18.8726674 17.175551,19.6121464 17.2615335,20.5851452 L17.2979826,20.7688985 L17.3157398,20.8295115 C17.9655925,22.6195103 19.8587636,23.3851486 21.8662665,24.1970444 C24.3083544,25.1847179 26.6230263,26.1213489 27.2283301,28.7305807 L2.04731642,28.7305807 C2.65417791,26.1226249 4.97850729,25.1853559 7.43243337,24.1960873 C9.44523221,23.3861057 11.3461916,22.6204673 11.9966674,20.8288735 M22.5416647,22.4322479 C20.9195251,21.77667 19.5138993,21.2078645 19.0914639,20.2728286 C19.0266655,19.4676322 19.0322731,18.8356615 19.0388152,18.107667 L19.0409959,17.8349083 C19.6783875,17.1327541 20.3083022,15.7600283 20.5656264,14.5059764 C21.1185932,14.1834512 21.723274,13.4576898 21.912996,11.8425118 C22.0030283,11.0829348 21.8235868,10.3721671 21.4185971,9.85440415 C21.5578513,8.4855065 21.703959,4.82575499 19.7082944,2.41399405 C18.52074,0.978103047 16.8147987,0.250427558 14.6378233,0.250427558 C12.4605363,0.250427558 10.7545951,0.978103047 9.56704065,2.41399405 C7.57199905,4.82479794 7.71779535,8.48518749 7.85673796,9.85440415 C7.45174826,10.3718481 7.27199514,11.0822967 7.3614044,11.8418738 C7.55143804,13.4583279 8.15674188,14.1840893 8.70939706,14.5066144 C8.97077118,15.7609853 9.61626247,17.1362633 10.2720343,17.8419267 L10.2735919,18.0984155 C10.2798225,18.8296002 10.284807,19.464442 10.2200086,20.2731476 C9.79788474,21.2072264 8.38820907,21.7757129 6.75485445,22.4338429 C4.04298107,23.5264727 0.328290885,25.0226578 0.0594400275,29.6209543 L-6.23061078e-05,30.6255357 L29.2760204,30.6255357 L29.215895,29.6206353 C28.9457981,25.0223387 25.2454383,23.5258347 22.5416647,22.4322479" id="Fill-1" fill="#1D2C35" fill-rule="nonzero" mask="url(#mask-2)"></path>
                </g>
                <g id="Fill-4-Clipped">
                    <mask id="mask-4" fill="white">
                        <use xlink:href="#path-3"></use>
                    </mask>
                    <g id="path-3"></g>
                    <polygon id="Fill-4" fill="#1D2C35" fill-rule="nonzero" mask="url(#mask-4)" points="37.4195556 8.01 39.5951111 8.01 39.5951111 5.785 37.4195556 5.785"></polygon>
                </g>
                <g id="Fill-6-Clipped">
                    <mask id="mask-6" fill="white">
                        <use xlink:href="#path-5"></use>
                    </mask>
                    <g id="path-3"></g>
                    <polygon id="Fill-6" fill="#1D2C35" fill-rule="nonzero" mask="url(#mask-6)" points="32.6333333 8.01 34.8088889 8.01 34.8088889 5.785 32.6333333 5.785"></polygon>
                </g>
                <g id="Fill-7-Clipped">
                    <mask id="mask-8" fill="white">
                        <use xlink:href="#path-7"></use>
                    </mask>
                    <g id="path-3"></g>
                    <polygon id="Fill-7" fill="#1D2C35" fill-rule="nonzero" mask="url(#mask-8)" points="27.8471111 8.01 30.0226667 8.01 30.0226667 5.785 27.8471111 5.785"></polygon>
                </g>
                <g id="Fill-8-Clipped">
                    <mask id="mask-10" fill="white">
                        <use xlink:href="#path-9"></use>
                    </mask>
                    <g id="path-3"></g>
                    <path d="M26.4466731,12.3168555 C26.0255947,12.3168555 25.6830593,11.9640281 25.6830593,11.5302976 L25.6830593,2.58215741 C25.6830593,2.15356358 26.0215429,1.80490973 26.4376345,1.80490973 L40.5685416,1.80490973 C40.9846333,1.80490973 41.3231168,2.15356358 41.3231168,2.58215741 L41.3231168,11.5681808 C41.3231168,11.9810434 40.997412,12.3168555 40.596281,12.3168555 L31.471252,12.3168555 L28.4005895,15.1282384 L28.4005895,12.3168555 L26.4466731,12.3168555 Z M40.569165,0 L26.4379461,0 C25.0556493,0 23.9311111,1.15832698 23.9311111,2.58215741 L23.9311111,11.5302976 C23.9311111,12.9589436 25.0600129,14.1217652 26.4472965,14.1217652 L26.6486412,14.1217652 L26.6486412,15.8910391 C26.6486412,16.4753393 26.9702941,16.9864414 27.4876814,17.2256192 C27.6740655,17.3116591 27.8704233,17.355 28.071768,17.355 C28.4164851,17.355 28.7506051,17.2233719 29.0114805,16.9841941 L32.1373102,14.1214442 L40.5969044,14.1214442 C41.9639289,14.1214442 43.076,12.975959 43.076,11.5681808 L43.076,2.58215741 C43.076,1.15832698 41.9511501,0 40.569165,0 L40.569165,0 Z" id="Fill-8" fill="#1D2C35" fill-rule="nonzero" mask="url(#mask-10)"></path>
                </g>
            </g>
        </g>
    </g>
</svg>