<?xml version="1.0" encoding="UTF-8"?>
<svg width="30px" height="30px" viewBox="0 0 30 30" version="1.1" xmlns="http://www.w3.org/2000/svg" xmlns:xlink="http://www.w3.org/1999/xlink">
    <title>Path 56 Copy</title>
    <g id="Page-1" stroke="none" stroke-width="1" fill="none" fill-rule="evenodd">
        <g id="Osum-Home-v1" transform="translate(-588.000000, -7358.000000)" fill="#8DC58B" fill-rule="nonzero">
            <path d="M613.606583,7362.39336 C610.773457,7359.56029 607.00664,7358 603,7358 C598.993301,7358 595.226485,7359.56029 592.393359,7362.39336 C589.560293,7365.22648 588,7368.99336 588,7373 C588,7377.00664 589.560293,7380.77346 592.393359,7383.60658 C595.226485,7386.43971 598.993359,7388 603,7388 C607.00664,7388 610.773457,7386.43971 613.606583,7383.60664 C616.439706,7380.77346 618,7377.00664 618,7373 C618,7368.99336 616.439706,7365.22654 613.606583,7362.39336 Z M610.239925,7370.05356 L601.771167,7378.73347 C601.597784,7378.91118 601.370533,7379 601.143342,7379 C600.916093,7379 600.688843,7378.91118 600.51546,7378.73347 L595.760074,7373.85962 C595.413309,7373.50427 595.413309,7372.92808 595.760074,7372.57261 C596.106781,7372.2172 596.669016,7372.2172 597.015782,7372.57261 L601.143342,7376.80299 L608.984216,7368.76656 C609.330923,7368.41115 609.893159,7368.41115 610.239925,7368.76656 C610.586692,7369.12197 610.586692,7369.69815 610.239925,7370.05356 Z" id="Path-56-Copy"></path>
        </g>
    </g>
</svg>