<?xml version="1.0" encoding="UTF-8"?>
<svg width="49px" height="52px" viewBox="0 0 49 52" version="1.1" xmlns="http://www.w3.org/2000/svg" xmlns:xlink="http://www.w3.org/1999/xlink">
    <!-- Generator: Sketch 63.1 (92452) - https://sketch.com -->
    <title>Group 21</title>
    <desc>Created with Sketch.</desc>
    <g id="Work-Board" stroke="none" stroke-width="1" fill="none" fill-rule="evenodd">
        <g id="Osum-Home" transform="translate(-1053.000000, -422.000000)" fill="#0A0B09" fill-rule="nonzero" stroke="#0A0B09">
            <g id="Group-21" transform="translate(1053.500000, 422.500000)">
                <path d="M43.424646,51 L4.57571983,51 C3.3147951,51 2.09733476,50.48115 1.23582486,49.57575 C0.37385745,48.67035 -0.072681932,47.44185 0.00967164247,46.2048 L1.81550252,19.2048 C1.97380439,16.8468 3.97957145,15 6.38155071,15 L41.6188152,15 C44.0207944,15 46.0265615,16.8468 46.1844058,19.20435 L47.9902367,46.2048 C48.0730478,47.44185 47.6260509,48.67035 46.7640835,49.57575 C45.9030311,50.48115 44.6855708,51 43.424646,51 Z M6.38155071,16.8 C4.94036316,16.8 3.73708593,17.90835 3.64237932,19.3227 L1.83654844,46.32225 C1.78622125,47.076 2.04700757,47.7942 2.57132533,48.345 C3.09610061,48.89625 3.80800151,49.19955 4.57571983,49.19955 L43.424646,49.19955 C44.1923644,49.19955 44.9038077,48.8958 45.4290405,48.345 C45.9533583,47.79375 46.2146021,47.076 46.1638174,46.32225 L44.3579865,19.32225 C44.2632799,17.9079 43.0600027,16.8 41.6188152,16.8 L6.38155071,16.8 Z" id="Shape"></path>
                <path d="M40.0571429,22 C39.5366857,22 39.1142857,21.5977143 39.1142857,21.1020408 L39.1142857,19.0816327 C39.1142857,9.5502449 32.5586,1.79591837 24.5,1.79591837 C16.4414,1.79591837 9.88571429,9.5502449 9.88571429,19.0816327 L9.88571429,21.1020408 C9.88571429,21.5977143 9.46331429,22 8.94285714,22 C8.4224,22 8,21.5977143 8,21.1020408 L8,19.0816327 C8,8.55979592 15.4019,0 24.5,0 C33.5981,0 41,8.55979592 41,19.0816327 L41,21.1020408 C41,21.5977143 40.5776,22 40.0571429,22 Z" id="Path"></path>
            </g>
        </g>
    </g>
</svg>