<?xml version="1.0" encoding="UTF-8"?>
<svg width="78px" height="64px" viewBox="0 0 78 64" version="1.1" xmlns="http://www.w3.org/2000/svg" xmlns:xlink="http://www.w3.org/1999/xlink">
    <title>Group 20</title>
    <g id="Page-1" stroke="none" stroke-width="1" fill="none" fill-rule="evenodd">
        <g id="Hover-Stages" transform="translate(-1516.000000, -186.000000)" fill="#1D2C35">
            <g id="Group-20" transform="translate(1516.000000, 186.000000)">
                <path d="M2.50845743,58.0167405 C2.50566735,58.0113347 2.50287727,58.0055802 2.49991281,58 C2.49712273,58.0055802 2.49433265,58.0113347 2.49154257,58.0167405 C1.96038085,59.1006871 1.10086144,59.9602065 0.0170892477,60.4913682 C0.0113347051,60.4941583 0.00558016252,60.4972971 0,60.4999128 C0.00558016252,60.5027029 0.0113347051,60.505493 0.0170892477,60.5082831 C1.10086144,61.0396192 1.96038085,61.8993129 2.49154257,62.9829108 C2.49433265,62.9886653 2.49712273,62.9942455 2.49991281,63 C2.50287727,62.9942455 2.50566735,62.9886653 2.50845743,62.9829108 C3.03961915,61.8993129 3.89931294,61.0396192 4.98291075,60.5082831 C4.98883967,60.505493 4.99441984,60.5027029 5,60.4999128 C4.99441984,60.4972971 4.98883967,60.4941583 4.98291075,60.4913682 C3.89931294,59.9602065 3.03961915,59.1006871 2.50845743,58.0167405" id="Fill-5"></path>
                <path d="M3.4883629,6.97607478 C3.4921063,6.98404985 3.49617522,6.99202493 3.49991862,7 C3.50398754,6.99202493 3.5078937,6.98404985 3.5116371,6.97607478 C4.25543491,5.45885745 5.45885745,4.25543491 6.97623753,3.5116371 C6.98404985,3.50773094 6.99218768,3.50366202 7,3.50008138 C6.99218768,3.49601246 6.98404985,3.49194355 6.97623753,3.4883629 C5.45885745,2.74440233 4.25543491,1.54081704 3.5116371,0.0235997117 C3.5078937,0.0156246367 3.50398754,0.00764956172 3.49991862,0 C3.49617522,0.00764956172 3.4921063,0.0156246367 3.4883629,0.0235997117 C2.74456509,1.54081704 1.54114255,2.74440233 0.0237624683,3.4883629 C0.01595015,3.49194355 0.00781231835,3.49601246 0,3.50008138 C0.00781231835,3.50366202 0.01595015,3.50773094 0.0237624683,3.5116371 C1.54114255,4.25543491 2.74456509,5.45885745 3.4883629,6.97607478" id="Fill-6"></path>
                <path d="M69.5084574,52.0167411 C69.505493,52.0111607 69.5028773,52.005406 69.4999128,52 C69.4971227,52.005406 69.4943326,52.0111607 69.4915426,52.0167411 C68.9603808,53.1007254 68.1008614,53.9601004 67.0170892,54.4914551 C67.0113347,54.4942453 67.0055802,54.4972098 67,54.5 C67.0055802,54.5027902 67.0113347,54.505406 67.0170892,54.5081961 C68.1008614,55.0395508 68.9603808,55.8992746 69.4915426,56.9829102 C69.4943326,56.9888393 69.4971227,56.9942453 69.4999128,57 C69.5028773,56.9942453 69.505493,56.9888393 69.5084574,56.9829102 C70.0396192,55.8992746 70.8991386,55.0395508 71.9829108,54.5081961 C71.9888397,54.505406 71.9944198,54.5027902 72,54.5 C71.9944198,54.4972098 71.9888397,54.4942453 71.9829108,54.4914551 C70.8991386,53.9601004 70.0396192,53.1007254 69.5084574,52.0167411" id="Fill-7"></path>
                <path d="M63.9966518,3.99316454 C63.9977679,3.99525703 63.9988839,3.99776801 64,4 C64.0011161,3.99776801 64.0022321,3.99525703 64.0034877,3.99316454 C64.2158203,3.55960103 64.5597098,3.21573551 64.9931641,3.00313873 C64.9955357,3.00216224 64.9979074,3.00090674 65,3.00006975 C64.9979074,2.99881426 64.9955357,2.99783776 64.9931641,2.99658227 C64.5597098,2.78412499 64.2158203,2.44011997 64.0034877,2.00655646 C64.0022321,2.00446397 64.0011161,2.00223199 64,2 C63.9988839,2.00223199 63.9977679,2.00446397 63.9966518,2.00655646 C63.7841797,2.44011997 63.4404297,2.78412499 63.0066964,2.99658227 C63.0044643,2.99783776 63.0022321,2.99881426 63,3.00006975 C63.0022321,3.00090674 63.0044643,3.00216224 63.0066964,3.00313873 C63.4404297,3.21573551 63.7841797,3.55960103 63.9966518,3.99316454" id="Fill-8"></path>
                <path d="M77.9762375,19.4883629 C76.4588574,18.7444023 75.2554349,17.5409798 74.5116371,16.0235997 C74.5078937,16.0156246 74.5038248,16.0076496 74.5000814,16 C74.4960125,16.0076496 74.4921063,16.0156246 74.4883629,16.0235997 C73.7445651,17.5409798 72.5411426,18.7444023 71.0237625,19.4883629 C71.0159501,19.4921063 71.0078123,19.4960125 71,19.5000814 C71.0078123,19.5038248 71.0159501,19.5077309 71.0237625,19.5116371 C72.5411426,20.2554349 73.7445651,21.4588574 74.4883629,22.9762375 C74.4921063,22.9842126 74.4960125,22.9921877 74.5000814,23 C74.5038248,22.9921877 74.5078937,22.9842126 74.5116371,22.9762375 C75.2554349,21.4588574 76.4588574,20.2554349 77.9762375,19.5116371 C77.9840499,19.5077309 77.9921877,19.5038248 78,19.5000814 C77.9921877,19.4960125 77.9840499,19.4921063 77.9762375,19.4883629" id="Fill-9"></path>
                <path d="M52.9535291,22.988366 L52.9535291,13.8836598 L56.0929418,13.8836598 L56.0929418,37.1163402 L52.9535291,37.1163402 L52.9535291,22.988366 Z M57.9767646,37.1163402 L61.1161772,37.1163402 L61.1161772,18.9069279 L57.9767646,18.9069279 L57.9767646,37.1163402 Z M47.9302937,37.1163402 L51.0698815,37.1163402 L51.0698815,23.9301959 L47.9302937,23.9301959 L47.9302937,37.1163402 Z M46.0466461,22.988366 L46.0466461,37.1163402 L42.9070582,37.1163402 L42.9070582,21.4186495 L46.0466461,21.4186495 L46.0466461,22.988366 Z M37.8838228,37.1163402 L41.0234106,37.1163402 L41.0234106,28.9534639 L37.8838228,28.9534639 L37.8838228,37.1163402 Z M51.0698815,12.9418299 L51.0698815,22.0465361 L47.9302937,22.0465361 L47.9302937,20.4766444 C47.9302937,19.9566758 47.5082599,19.5348145 46.9884699,19.5348145 L41.9652344,19.5348145 C41.445094,19.5348145 41.0234106,19.9566758 41.0234106,20.4766444 L41.0234106,27.0698041 L36.941999,27.0698041 C36.4218586,27.0698041 36,27.4916654 36,28.011634 L36,38.0581701 C36,38.5781387 36.4218586,39 36.941999,39 L62.058001,39 C62.5781414,39 63,38.5781387 63,38.0581701 L63,17.9650979 C63,17.4451293 62.5781414,17.023268 62.058001,17.023268 L57.9767646,17.023268 L57.9767646,12.9418299 C57.9767646,12.4218613 57.554906,12 57.0347656,12 L52.0117053,12 C51.4917401,12 51.0698815,12.4218613 51.0698815,12.9418299 L51.0698815,12.9418299 Z" id="Fill-10"></path>
                <path d="M34.9123698,14 C35.1464021,14 35.3792465,13.9110835 35.5574437,13.7330812 L41.4062159,7.89592537 L46.249786,12.7289176 C46.6060107,13.0845836 47.1835394,13.0845836 47.5397642,12.7289176 L55.1752605,5.10852046 L55.1752605,7.01844664 C55.1752605,7.52129056 55.5840958,7.92912086 56.0876302,7.92912086 C56.5913344,7.92912086 57,7.52129056 57,7.01844664 L57,2.91050485 C57,2.79194953 56.9759009,2.67373294 56.9295697,2.56246031 C56.8370768,2.33991504 56.6593887,2.16242079 56.4363877,2.070117 C56.3248871,2.02421916 56.2065981,2 56.0876302,2 L51.9712745,2 C51.4675703,2 51.0589047,2.4078303 51.0589047,2.91050485 C51.0589047,3.4131794 51.4675703,3.8210097 51.9712745,3.8210097 L53.8852823,3.8210097 L46.8946902,10.7976515 L42.0511201,5.96448986 C41.6948954,5.6088239 41.1173667,5.6088239 40.7609722,5.96448986 L34.2672958,12.4455704 C33.9109014,12.8014057 33.9109014,13.3774152 34.2672958,13.7330812 C34.445493,13.9110835 34.6783374,14 34.9123698,14" id="Fill-11"></path>
                <path d="M12.5397475,58.1838242 L16.4054171,58.1838242 L16.4054171,41.6853883 L12.5397475,41.6853883 L12.5397475,58.1838242 Z M18.2430543,44.4818877 C19.5790671,44.4056055 22.1367532,43.9181895 26.0820673,41.7898468 C31.1321514,39.0622419 35.7850379,43.1381866 35.9956005,43.3257997 C36.1762537,43.4797386 40.5384202,47.0878533 51.8553052,45.1117314 C52.069457,45.0888811 53.976655,44.9229158 54.8835099,47.6663268 C54.8154872,48.3253778 54.2255018,51.2682566 49.1024386,51.501742 L34.928431,51.501742 C34.4209956,51.501742 34.0096124,51.9154528 34.0096124,52.4253754 C34.0096124,52.935298 34.4209956,53.3490088 34.928431,53.3490088 L49.1443118,53.3478062 C54.9865693,53.0825364 56.324804,49.7524051 56.6329569,48.2649018 C57.9590569,47.7628823 60.7462767,46.2300219 67.2115056,42.2480556 C68.4473645,41.4412508 70.084181,40.6810057 70.8510596,41.6276612 C71.3306364,42.2217691 71.235097,43.1670502 70.6343442,43.7816031 C64.1988539,50.3508082 47.0397113,61.1846019 46.8460689,61.3072719 C44.8180366,62.6638585 38.8788724,62.5135275 32.8180195,59.9060156 C26.4756758,57.1772081 20.237588,56.9607315 19.9480644,56.952313 L18.2430543,56.952313 L18.2430543,44.4818877 Z M5,43.055204 C5,43.5651266 5.41155417,43.9788373 5.91881861,43.9788373 L10.7021103,43.9788373 L10.7021103,55.8915777 L5.91881861,55.8915777 C5.41155417,55.8915777 5,56.3052885 5,56.8152111 C5,57.3251337 5.41155417,57.7388445 5.91881861,57.7388445 L10.7021103,57.7388445 L10.7021103,59.1074576 C10.7021103,59.6173802 11.1136645,60.0310909 11.6209289,60.0310909 L17.3242357,60.0310909 C17.8315001,60.0310909 18.2430543,59.6173802 18.2430543,59.1074576 L18.2430543,58.7995798 L19.9205477,58.7995798 C19.981563,58.8007824 26.0701035,59.0112457 32.095236,61.6043259 C35.7491466,63.177389 39.6411364,64 42.7900043,64 C44.9103287,64 46.6939579,63.6271792 47.8426521,62.8586874 C48.5544973,62.4100998 65.3569482,51.8012013 71.9431821,45.0780573 C73.2127105,43.7816031 73.3562759,41.7970627 72.2771426,40.4621238 C71.3774661,39.3532827 69.593495,38.492187 66.2315008,40.6858163 C62.354722,43.0732437 58.0199013,45.6099712 56.3600117,46.4035468 C55.1173164,43.5740605 52.75464,43.1029662 51.567149,43.2873149 C41.1952319,45.099705 37.2218884,41.9473937 37.2051391,41.935539 C36.9718453,41.7250756 31.4109076,36.8217094 25.2134966,40.1614619 C21.6214559,42.0996145 19.334835,42.5409862 18.2430543,42.6258587 L18.2430543,40.7617549 C18.2430543,40.2516605 17.8315001,39.8379497 17.3242357,39.8379497 L11.6209289,39.8379497 C11.1136645,39.8379497 10.7021103,40.2516605 10.7021103,40.7617549 L10.7021103,42.1315706 L5.91881861,42.1315706 C5.41155417,42.1315706 5,42.5452813 5,43.055204 L5,43.055204 Z" id="Fill-12"></path>
            </g>
        </g>
    </g>
</svg>