<?xml version="1.0" encoding="utf-8"?>
<!-- Generator: Adobe Illustrator 25.2.0, SVG Export Plug-In . SVG Version: 6.00 Build 0)  -->
<svg version="1.1" id="Layer_1" xmlns="http://www.w3.org/2000/svg" xmlns:xlink="http://www.w3.org/1999/xlink" x="0px" y="0px"
	 viewBox="0 0 32 31" style="enable-background:new 0 0 32 31;" xml:space="preserve">
<style type="text/css">
	.st0{fill:#6864BE;}
</style>
<g id="Page-1">
	<g id="Osum-Home-v1" transform="translate(-1394.000000, -10938.000000)">
		<g id="iconfinder_Instagram_Solid_1435170" transform="translate(1394.000000, 10938.000000)">
			<path id="XMLID_142_" class="st0" d="M30.2,5.3c-0.4-1-0.9-1.9-1.8-2.7s-1.7-1.4-2.7-1.8c-1-0.4-2.1-0.6-3.8-0.7
				C20.2,0,19.7,0,15.5,0s-4.7,0-6.4,0.1C7.5,0.2,6.3,0.4,5.3,0.8c-1,0.4-1.9,0.9-2.7,1.8S1.2,4.3,0.8,5.3c-0.4,1-0.6,2.1-0.7,3.8
				C0,10.8,0,11.3,0,15.5s0,4.7,0.1,6.4c0.1,1.7,0.3,2.8,0.7,3.8c0.4,1,0.9,1.9,1.8,2.7s1.7,1.4,2.7,1.8c1,0.4,2.1,0.6,3.8,0.7
				c1.7,0.1,2.2,0.1,6.4,0.1s4.7,0,6.4-0.1c1.7-0.1,2.8-0.3,3.8-0.7c1-0.4,1.9-0.9,2.7-1.8s1.4-1.7,1.8-2.7c0.4-1,0.6-2.1,0.7-3.8
				c0.1-1.7,0.1-2.2,0.1-6.4s0-4.7-0.1-6.4C30.8,7.5,30.6,6.3,30.2,5.3z M28.1,21.8c-0.1,1.5-0.3,2.3-0.5,2.9
				c-0.3,0.7-0.6,1.2-1.2,1.8s-1.1,0.9-1.8,1.2c-0.6,0.2-1.4,0.5-2.9,0.5c-1.6,0.1-2.1,0.1-6.3,0.1s-4.6,0-6.3-0.1
				c-1.5-0.1-2.3-0.3-2.9-0.5c-0.7-0.3-1.2-0.6-1.8-1.2s-0.9-1.1-1.2-1.8c-0.2-0.6-0.5-1.4-0.5-2.9c-0.1-1.6-0.1-2.1-0.1-6.3
				s0-4.6,0.1-6.3c0.1-1.5,0.3-2.3,0.5-2.9C3.7,5.6,4,5.1,4.6,4.6s1.1-0.9,1.8-1.2c0.6-0.2,1.4-0.5,2.9-0.5c1.6-0.1,2.1-0.1,6.3-0.1
				s4.6,0,6.3,0.1c1.5,0.1,2.3,0.3,2.9,0.5c0.7,0.3,1.2,0.6,1.8,1.2s0.9,1.1,1.2,1.8c0.2,0.6,0.5,1.4,0.5,2.9
				c0.1,1.6,0.1,2.1,0.1,6.3S28.2,20.1,28.1,21.8z"/>
			<path id="XMLID_145_" class="st0" d="M16,8c-4.4,0-8,3.6-8,8s3.6,8,8,8s8-3.6,8-8S20.4,8,16,8z M16,21.2c-2.9,0-5.2-2.3-5.2-5.2
				c0-2.9,2.3-5.2,5.2-5.2s5.2,2.3,5.2,5.2C21.2,18.9,18.9,21.2,16,21.2z"/>
			<circle id="XMLID_143_" class="st0" cx="23.5" cy="6.5" r="1.5"/>
		</g>
	</g>
</g>
</svg>
