<?xml version="1.0" encoding="UTF-8"?>
<svg width="32px" height="31px" viewBox="0 0 32 31" version="1.1" xmlns="http://www.w3.org/2000/svg" xmlns:xlink="http://www.w3.org/1999/xlink">
    <title>iconfinder_Instagram_Solid_1435170</title>
    <g id="Page-1" stroke="none" stroke-width="1" fill="none" fill-rule="evenodd">
        <g id="Osum-Home-v1" transform="translate(-1394.000000, -10938.000000)" fill-rule="nonzero">
            <g id="iconfinder_Instagram_Solid_1435170" transform="translate(1394.000000, 10938.000000)">
                <path d="M30.1854714,5.3423493 C29.7901855,4.32418856 29.2631376,3.46174652 28.4006955,2.59930448 C27.5382535,1.73686244 26.6758114,1.20981453 25.6576507,0.814528594 C24.675425,0.43122102 23.5374807,0.167697063 21.8964451,0.0958268934 C20.2434312,0.0239567233 19.7163833,0 15.5,0 C11.2836167,0 10.7565688,0.0119783617 9.10355487,0.0958268934 C7.45054096,0.167697063 6.32457496,0.43122102 5.3423493,0.814528594 C4.32418856,1.20981453 3.46174652,1.73686244 2.59930448,2.59930448 C1.73686244,3.46174652 1.20981453,4.32418856 0.814528594,5.3423493 C0.43122102,6.32457496 0.167697063,7.46251932 0.0958268934,9.10355487 C0.0239567233,10.7565688 0,11.2836167 0,15.5 C0,19.7163833 0.0119783617,20.2434312 0.0958268934,21.8964451 C0.167697063,23.549459 0.43122102,24.675425 0.814528594,25.6576507 C1.20981453,26.6758114 1.73686244,27.5382535 2.59930448,28.4006955 C3.46174652,29.2631376 4.32418856,29.7901855 5.3423493,30.1854714 C6.32457496,30.568779 7.46251932,30.8323029 9.10355487,30.9041731 C10.7565688,30.9760433 11.2836167,31 15.5,31 C19.7163833,31 20.2434312,30.9880216 21.8964451,30.9041731 C23.549459,30.8323029 24.675425,30.568779 25.6576507,30.1854714 C26.6758114,29.7901855 27.5382535,29.2631376 28.4006955,28.4006955 C29.2631376,27.5382535 29.7901855,26.6758114 30.1854714,25.6576507 C30.568779,24.675425 30.8323029,23.5374807 30.9041731,21.8964451 C30.9760433,20.2434312 31,19.7163833 31,15.5 C31,11.2836167 30.9880216,10.7565688 30.9041731,9.10355487 C30.8323029,7.45054096 30.568779,6.32457496 30.1854714,5.3423493 Z M28.1132148,21.7646832 C28.0413447,23.2739567 27.7897991,24.1004637 27.5741886,24.63949 C27.2986862,25.3581917 26.9513138,25.8852396 26.4122875,26.4242658 C25.8732612,26.9632921 25.3581917,27.2986862 24.6275116,27.5861669 C24.076507,27.8017774 23.2619784,28.053323 21.7527048,28.1251932 C20.1116692,28.1970634 19.6325348,28.2210201 15.4880216,28.2210201 C11.3435085,28.2210201 10.8523957,28.2090417 9.22333849,28.1251932 C7.71406491,28.053323 6.88755796,27.8017774 6.34853168,27.5861669 C5.62982998,27.3106646 5.10278207,26.9632921 4.5637558,26.4242658 C4.02472952,25.8852396 3.68933539,25.37017 3.40185471,24.63949 C3.1862442,24.0884853 2.93469861,23.2739567 2.86282844,21.7646832 C2.79095827,20.1236476 2.76700155,19.6325348 2.76700155,15.5 C2.76700155,11.3674652 2.77897991,10.864374 2.86282844,9.23531685 C2.93469861,7.72604328 3.1862442,6.89953632 3.40185471,6.36051005 C3.67735703,5.64180835 4.02472952,5.11476043 4.5637558,4.57573416 C5.10278207,4.03670788 5.61785162,3.70131376 6.34853168,3.41383308 C6.89953632,3.19822257 7.71406491,2.94667697 9.22333849,2.8748068 C10.864374,2.80293663 11.3554869,2.77897991 15.4880216,2.77897991 C19.6205564,2.77897991 20.1236476,2.79095827 21.7527048,2.8748068 C23.2619784,2.94667697 24.0884853,3.19822257 24.6275116,3.41383308 C25.3462133,3.68933539 25.8732612,4.03670788 26.4122875,4.57573416 C26.9513138,5.11476043 27.2867079,5.62982998 27.5741886,6.36051005 C27.7897991,6.91151468 28.0413447,7.72604328 28.1132148,9.23531685 C28.185085,10.8763524 28.2090417,11.3674652 28.2090417,15.5 C28.2090417,19.6325348 28.185085,20.135626 28.1132148,21.7646832 Z" id="XMLID_142_" fill="#1D2C35"></path>
                <path d="M16,8 C11.5849624,8 8,11.5849624 8,16 C8,20.4150376 11.5849624,24 16,24 C20.4150376,24 24,20.4150376 24,16 C24,11.5849624 20.4150376,8 16,8 Z M16,21.1969925 C13.1368421,21.1969925 10.8030075,18.875188 10.8030075,16 C10.8030075,13.1368421 13.124812,10.8030075 16,10.8030075 C18.875188,10.8030075 21.1969925,13.124812 21.1969925,16 C21.1969925,18.8631579 18.8631579,21.1969925 16,21.1969925 Z" id="XMLID_145_" fill="#1D2C35"></path>
                <circle id="XMLID_143_" fill="#000000" cx="23.5" cy="6.5" r="1.5"></circle>
            </g>
        </g>
    </g>
</svg>