<?xml version="1.0" encoding="UTF-8"?>
<svg width="40px" height="39px" viewBox="0 0 40 39" version="1.1" xmlns="http://www.w3.org/2000/svg" xmlns:xlink="http://www.w3.org/1999/xlink">
    <title>2C87655D-5BCA-4B71-8759-DBC58CAF60E9</title>
    <g id="Page-1" stroke="none" stroke-width="1" fill="none" fill-rule="evenodd">
        <g id="Osum-Home-v1" transform="translate(-257.000000, -762.000000)" fill="#1D2C35">
            <g id="Group-25" transform="translate(257.000000, 762.719029)">
                <path d="M33.5403679,19.8228746 L33.3284873,19.7370444 L32.6503689,21.4430852 L32.8622494,21.5288138 C34.6682168,22.2600467 35.8352208,24.0014353 35.8352208,25.9652715 C35.8352208,28.6006149 33.710275,30.7446437 31.0984569,30.7446437 L30.8702701,30.7446437 L30.8702701,32.5823247 L31.0984569,32.5823247 C31.3530155,32.5823247 31.6140162,32.5647523 31.8898132,32.5288966 C31.6498497,33.5322468 30.8298064,34.3043126 29.8071429,34.4528141 C29.1381841,34.5475828 28.4735535,34.3761255 27.935246,33.9704381 C27.3963345,33.5626175 27.0464548,32.9669863 26.9503284,32.2935491 L26.9178166,32.0657181 L25.1159761,32.3265607 L25.148186,32.5543917 C25.247634,33.2569807 25.5203107,33.916299 25.9592709,34.5154854 C25.9106541,35.3225942 25.2409907,35.9669811 24.4325229,35.9669811 C23.5880203,35.9669811 22.9009434,35.2738386 22.9009434,34.4219355 L22.9009434,29.3696333 C22.9957612,28.9512491 23.7100152,26.2288566 26.2281227,26.1961497 L26.4564102,26.193204 L26.4326554,24.3555231 L26.2043679,24.3584687 C24.9360035,24.3751269 23.8047323,24.8377975 22.9009434,25.7031084 L22.9009434,16.6102849 C24.1382052,16.4612755 25.1556345,17.2010406 25.5797983,18.5787935 L25.6447213,18.78956 L27.3971398,18.3230296 L27.3386587,18.1001757 C27.0050852,16.8293805 26.343273,15.9017031 25.371642,15.3430448 C24.518483,14.8525429 23.5953681,14.7625481 22.9009434,14.7893637 L22.9009434,8.43457517 C23.4144896,8.47327495 23.8255681,8.75605761 24.1247173,9.27774285 L24.2390623,9.47703149 L25.8157356,8.55707369 L25.7012899,8.3575819 C24.8867828,6.93767575 23.677302,6.63366408 22.9009434,6.60146505 L22.9009434,3.31391353 C22.9009434,2.46201047 23.5880203,1.76886792 24.4325229,1.76886792 C25.2769249,1.76886792 25.9640017,2.46201047 25.9640017,3.31391353 C25.9640017,3.55708224 25.9029036,3.80309502 25.7870487,4.0270662 C25.6909224,4.13656322 25.6092905,4.23884847 25.5383281,4.33920381 L25.4105958,4.51959964 L26.8635631,5.65337119 L27.0044813,5.48303121 C27.0550105,5.42198509 27.0949709,5.36032954 27.1335221,5.30080704 C27.1463054,5.28110164 27.158988,5.26149781 27.1719726,5.24199556 C27.5705698,4.79242802 28.127096,4.53493735 28.7009351,4.53493735 C30.6428885,4.53493735 30.8525546,6.17861153 30.8525546,6.88536502 L30.8525546,7.29166194 L32.0525737,8.39313288 L32.459324,8.34041586 C33.601768,8.24229515 34.5969524,8.53320375 35.3386854,9.18195835 C36.0979325,9.84594909 36.5358862,10.8261404 36.6053387,12.0168951 C36.6028223,13.4464508 35.7722102,14.760415 34.4877408,15.365899 L34.280893,15.4633087 L35.0516149,17.1288214 L35.2584627,17.0312085 C35.7165475,16.8150586 36.1502736,16.5253689 36.5495754,16.1690465 C37.5757618,16.6683854 38.2311321,17.7122637 38.2311321,18.8676706 C38.2311321,20.1871198 37.3716317,21.3444566 36.1240024,21.7310481 C35.4222298,20.8825986 34.5320294,20.2244992 33.5403679,19.8228746 M40,18.8676715 C40,17.1611415 39.1165905,15.5979188 37.6788103,14.7316995 C38.1403855,13.9021166 38.3833356,12.9747691 38.3833356,12.0351756 L38.3824347,12.0148333 C37.905744,6.61196871 33.4126183,6.5045895 32.6619455,6.52402099 L32.6452283,6.50863773 C32.5642449,5.5117619 32.1969668,4.60647719 31.6057581,3.95076567 C30.9009325,3.16905309 29.9000021,2.75583034 28.7112783,2.75583034 C28.3931507,2.75583034 28.0716197,2.79864034 27.752291,2.88334949 C27.5163481,1.24503213 26.1240147,0 24.4663081,0 C22.6277152,0 21.1320755,1.51191148 21.1320755,3.37035116 L21.1320755,34.3654979 C21.1320755,36.2239376 22.6277152,37.7358491 24.4663081,37.7358491 C25.7652453,37.7358491 26.9482632,36.9530232 27.4878187,35.7622373 C28.1027518,36.0844762 28.7747436,36.2535908 29.446335,36.2535908 C29.6514462,36.2535908 29.8605614,36.23841 30.0678749,36.2084531 C32.1589276,35.9049373 33.7191338,34.092445 33.7541699,31.9589283 C36.1060912,30.8950543 37.6173471,28.5489045 37.6173471,25.9395188 C37.6173471,25.0209761 37.4367611,24.1364386 37.080094,23.3061473 C38.8365022,22.5528735 40,20.7994853 40,18.8676715" id="Fill-1"></path>
                <path d="M26.6354402,10.6971283 L26.4150943,10.7501792 L26.8380662,12.4966774 L27.0558091,12.4488022 C27.3252097,12.3894808 29.7149758,11.9334225 30.7068824,14.1334907 L30.799786,14.3396226 L32.4528302,13.6021858 L32.3599265,13.3961533 C31.0466614,10.4879109 28.0411084,10.3589166 26.6354402,10.6971283" id="Fill-3"></path>
                <path d="M31.5164927,21.8867925 L29.9599086,22.4615035 L30.0134602,22.7094473 C30.0316695,22.7934338 30.4398098,24.781459 28.8531758,26.0150971 L28.6792453,26.1502557 L29.5224361,27.9245283 L29.6962769,27.7892549 C31.8240779,26.1344222 31.8545763,23.3676859 31.5733632,22.1357689 L31.5164927,21.8867925 Z" id="Fill-5"></path>
                <path d="M13.082157,32.0657181 L13.049645,32.2935491 C12.953518,32.9668847 12.6037366,33.5624144 12.0650229,33.9702349 C11.5263093,34.3763287 10.861473,34.547786 10.193617,34.4529157 C9.17024219,34.3043126 8.35019356,33.5321453 8.11012777,32.528795 C8.38622859,32.5647523 8.64723094,32.5823247 8.90138864,32.5823247 L9.12967762,32.5823247 L9.12967762,30.7446437 L8.90138864,30.7446437 C6.29005665,30.7446437 4.16570088,28.6006149 4.16570088,25.9652715 C4.16570088,24.0016385 5.3323099,22.2600467 7.13778582,21.528306 L7.34956713,21.4424757 L6.67154484,19.7375523 L6.45966288,19.8232809 C5.46849817,20.2246007 4.5783926,20.8825986 3.87671602,21.7310481 C2.62857523,21.3446598 1.76886792,20.187323 1.76886792,18.867569 C1.76886792,17.7122637 2.42434316,16.6685885 3.45063699,16.169148 C3.8501427,16.5254704 4.28397229,16.8150586 4.74236206,17.0311069 L4.9492112,17.1286182 L5.71993814,15.4632071 L5.513089,15.3657975 C4.22609479,14.7596024 3.39447066,13.4424894 3.39447066,12.0102928 C3.39447066,9.96936178 5.04000338,8.30892785 7.06249475,8.30892785 C7.2193176,8.30892785 7.37261748,8.31888212 7.53105083,8.33929854 L7.94736618,8.39303131 L9.14829907,7.29206824 L9.14829907,6.88536502 C9.14829907,4.76388566 10.6530133,4.53483577 11.2998321,4.53483577 C11.8700513,4.53483577 12.4247693,4.79049811 12.8241744,5.23661212 C12.8370584,5.25591123 12.8496405,5.27541348 12.8622225,5.29481416 C12.9021832,5.35646972 12.9434523,5.42025833 12.9958944,5.48333593 L13.1368135,5.65316804 L14.5893877,4.51909177 L14.4616546,4.33859436 C14.3903898,4.23803587 14.3086567,4.1354459 14.212429,4.02605046 C14.0974793,3.8027903 14.0369847,3.55718381 14.0369847,3.31391353 C14.0369847,2.46201047 14.7236635,1.76886792 15.5675677,1.76886792 C16.4120759,1.76886792 17.0990566,2.46201047 17.0990566,3.31391353 L17.0990566,6.60156662 C16.3227936,6.63386723 15.1131035,6.93808204 14.298591,8.35748033 L14.1841446,8.55707369 L15.7610295,9.47713306 L15.8753753,9.2775397 C16.1741239,8.75585446 16.5851044,8.47297023 17.0990566,8.43437202 L17.0990566,14.7893637 C16.4058352,14.7619387 15.4828149,14.8523397 14.6293483,15.342537 C13.6566038,15.9012968 12.9947872,16.8289742 12.6623187,18.0997694 L12.6040386,18.3223186 L14.3634138,18.7926072 L14.4219959,18.5699565 C14.6252214,17.7966719 14.995738,17.2495931 15.5230775,16.9438547 C16.0377343,16.6454296 16.6341242,16.5986039 17.0990566,16.6251148 L17.0990566,25.70321 C16.1950604,24.8376959 15.0639832,24.3751269 13.7956104,24.3584687 L13.5673214,24.3554215 L13.5435665,26.1931025 L13.7718555,26.1961497 C14.8501887,26.2102685 15.7206663,26.6943713 16.3592312,27.6350502 C16.8494284,28.357243 17.0447021,29.1179324 17.0990566,29.3683129 L17.0990566,34.421834 C17.0990566,35.2738386 16.4120759,35.9669811 15.5675677,35.9669811 C14.7587926,35.9669811 14.0894268,35.3221879 14.0416149,34.5144696 C14.4798734,33.9154864 14.7524512,33.2564728 14.8518999,32.5544933 L14.8842106,32.3264592 L13.082157,32.0657181 Z M15.5338097,0 C13.8765123,0 12.4844866,1.24513 12.2487452,2.88344296 C11.9292179,2.79873404 11.6076886,2.75592416 11.2895628,2.75592416 C10.1008453,2.75592416 9.10002024,3.16904459 8.39519836,3.95055266 C7.80409295,4.60616122 7.43681679,5.51134229 7.35583385,6.50801304 L7.33981744,6.52278903 C4.20851036,6.36986767 1.61675588,8.90374719 1.61675588,12.0352446 C1.61675588,12.9749367 1.85960461,13.9021805 2.32137755,14.7319636 C0.883504886,15.5981806 0,17.1613991 0,18.8676209 C0,20.7997331 1.16389206,22.5531166 2.92069137,23.3062872 C2.56412618,24.1366775 2.38354122,25.0212127 2.38354122,25.9395504 C2.38354122,28.5486255 3.89448874,30.8944654 6.24589705,31.9586402 C6.28073273,34.0922524 7.84093068,35.9049422 9.93237274,36.2084572 C10.1394849,36.238414 10.348599,36.2535948 10.5538092,36.2535948 C11.2255973,36.2535948 11.8976856,36.0843794 12.5128156,35.761939 C13.0520679,36.9528229 14.2347793,37.7358491 15.5338097,37.7358491 C17.3722927,37.7358491 18.8679245,36.2239416 18.8679245,34.3654057 L18.8679245,3.37044333 C18.8679245,1.51200863 17.3722927,0 15.5338097,0 L15.5338097,0 Z" id="Fill-7"></path>
                <path d="M13.8644787,12.4972937 L14.3396226,10.7502216 L14.0912954,10.6970689 C12.51011,10.358942 9.12981932,10.4880414 7.65179383,13.3962117 L7.54716981,13.6022531 L9.40663939,14.3396226 L9.51126341,14.1336807 C10.6307067,11.9298337 13.3161317,12.3892962 13.6186291,12.4488192 L13.8644787,12.4972937 Z" id="Fill-9"></path>
                <path d="M9.98644341,22.7100262 L10.040085,22.4613123 L8.4835828,21.8867925 L8.42653259,22.1366535 C8.14549747,23.368292 8.17599602,26.1348897 10.303718,27.7892729 L10.4775597,27.9245283 L11.3207547,26.1504917 L11.146913,26.015351 C9.56098872,24.7825654 9.96832369,22.7941163 9.98644341,22.7100262" id="Fill-11"></path>
            </g>
        </g>
    </g>
</svg>