<?xml version="1.0" encoding="UTF-8"?>
<svg width="44px" height="44px" viewBox="0 0 44 44" version="1.1" xmlns="http://www.w3.org/2000/svg" xmlns:xlink="http://www.w3.org/1999/xlink">
    <title>satisfaction</title>
    <g id="Page-1" stroke="none" stroke-width="1" fill="none" fill-rule="evenodd">
        <g id="Mobile-App-LP" transform="translate(-276.000000, -1005.000000)">
            <g id="satisfaction" transform="translate(276.000000, 1005.000000)">
                <rect id="Rectangle-Copy-18" x="0" y="0" width="44" height="44"></rect>
                <g id="iconfinder_security_secure-09_4857865-copy" opacity="0.889628092" transform="translate(9.000000, 6.000000)" fill="#1D2C35" fill-rule="nonzero">
                    <g id="Group-33" transform="translate(0.500000, 0.000000)">
                        <path d="M12.467,0.11177012 C12.8059957,-0.0372567067 13.1940043,-0.0372567067 13.533,0.11177012 L13.533,0.11177012 L25.233,5.19717235 C25.6988668,5.401972 25.9989343,5.85458845 26,6.35410135 L26,6.35410135 L26,17.2368621 C25.9818908,20.3668853 24.6070215,23.3424969 22.217,25.4243597 L22.217,25.4243597 L13.858,32.6837714 C13.3672419,33.1054095 12.6327581,33.1054095 12.142,32.6837714 L12.142,32.6837714 L3.783,25.4243597 C1.39297847,23.3424969 0.0181092235,20.3668853 0,17.2368621 L0,17.2368621 L0,6.35410135 C0.00106572278,5.85458845 0.301133243,5.401972 0.767,5.19717235 L0.767,5.19717235 Z M13,2.65447123 L2.59998192,7.18047921 L2.59998192,17.2114351 C2.5949334,19.6404272 3.65519725,21.954931 5.512,23.5681879 L5.512,23.5681879 L13,30.0775027 L20.488,23.5936149 C22.3448028,21.980358 23.4050666,19.6658542 23.4000181,17.2368621 L23.4000181,17.2368621 L23.4000181,7.18047921 L13,2.65447123 Z M17.7473402,10.4127108 C18.2428164,9.88306838 19.0687708,9.86016919 19.592161,10.361564 C20.1155513,10.8629588 20.1381802,11.6987796 19.6427041,12.228422 L19.6427041,12.228422 L13.3248246,18.6217716 C13.0875673,18.86384 12.7646025,19 12.4276857,19 C12.090769,19 11.7678042,18.86384 11.5305468,18.6217716 L11.5305468,18.6217716 L8.37160709,15.4250968 C7.87613097,14.923702 7.87613097,14.1107804 8.37160709,13.6093855 C8.86708322,13.1079907 9.67040874,13.1079907 10.1658849,13.6093855 L10.1658849,13.6093855 L12.3265997,15.9109914 Z" id="Combined-Shape"></path>
                    </g>
                </g>
            </g>
        </g>
    </g>
</svg>