<?xml version="1.0" encoding="UTF-8"?>
<svg width="141px" height="108px" viewBox="0 0 141 108" version="1.1" xmlns="http://www.w3.org/2000/svg" xmlns:xlink="http://www.w3.org/1999/xlink">
    <title>Artboard Copy 3</title>
    <g id="Artboard-Copy-3" stroke="none" stroke-width="1" fill="none" fill-rule="evenodd">
        <g id="iconfinder_security_secure-09_4857865" transform="translate(43.000000, 19.000000)" fill="#000000" fill-rule="nonzero">
            <path d="M27.1791772,2.02393656 L27.2955261,2.06506794 L51.587812,12.8488408 C51.7131076,12.9050966 51.8161883,12.9953109 51.887947,13.1058586 C51.9415027,13.1883637 51.9775967,13.2821923 51.9924149,13.3798037 L52,13.4783968 L52,36.5572498 C51.9648796,42.4866485 49.4723944,48.1298606 45.1292384,52.1498555 L44.8158738,52.4342194 L27.4628825,67.825906 C27.3305029,67.9420661 27.165217,68 27,68 C26.8678264,68 26.7356087,67.9629223 26.6243307,67.8922347 L26.5451262,67.8329714 L9.186354,52.4361983 C4.75323938,48.4923251 2.15847467,42.8952873 2.00667963,36.9802734 L2,36.5572496 L1.99999564,13.4825748 C2.00020961,13.3801458 2.02296808,13.2813363 2.06445905,13.1919242 L2.112053,13.1058586 L26.7121923,2.06162202 C26.8586322,1.9958724 27.0220102,1.98272247 27.1791772,2.02393656 Z M27,3.44203869 L3.39996246,13.9316067 L3.39996246,36.5091048 L3.40348866,36.9272523 C3.50876428,42.4956949 5.93962724,47.7790819 10.1205477,51.4890772 L10.1205477,51.4890772 L26.9974043,66.4729712 L43.8769404,51.5452385 L44.1873984,51.2638999 C48.2827889,47.4739716 50.6114009,42.1448317 50.6000334,36.5589708 L50.6000334,36.5589708 L50.6000378,13.9316068 L27,3.44203869 Z" id="Shape" stroke="#1D2C35" stroke-width="4"></path>
            <path d="M19.5122601,30.6198139 C18.4800182,29.5613137 16.8064234,29.5613137 15.7741814,30.6198139 C14.7419395,31.6783141 14.7419395,33.394482 15.7741814,34.4529822 L22.3553059,41.2015178 C22.8495921,41.7125511 23.5224353,42 24.2243453,42 C24.9262552,42 25.5990985,41.7125511 26.0933846,41.2015178 L39.2556335,27.7044465 C40.2878754,26.5863125 40.2407319,24.8218019 39.1503355,23.7633018 C38.0599391,22.7048016 36.3392008,22.7531444 35.3069589,23.8712783 L24.0137493,35.4787596 L19.5122601,30.6198139 Z" id="Path"></path>
        </g>
    </g>
</svg>