<?xml version="1.0" encoding="utf-8"?>
<!-- Generator: Adobe Illustrator 25.2.0, SVG Export Plug-In . SVG Version: 6.00 Build 0)  -->
<svg version="1.1" id="Layer_1" xmlns="http://www.w3.org/2000/svg" xmlns:xlink="http://www.w3.org/1999/xlink" x="0px" y="0px"
	 viewBox="0 0 39 33" style="enable-background:new 0 0 39 33;" xml:space="preserve">
<style type="text/css">
	.st0{fill:#FFFFFF;}
</style>
<path class="st0" d="M23.2,14.2c-2.6,0-4.8-2.1-4.8-4.8s2.1-4.8,4.8-4.8S28,6.7,28,9.4S25.8,14.2,23.2,14.2z M23.2,6.3
	c-1.7,0-3.2,1.4-3.2,3.2s1.4,3.2,3.2,3.2s3.2-1.4,3.2-3.2S24.9,6.3,23.2,6.3z"/>
<path class="st0" d="M29.5,25.3c-0.4,0-0.8-0.4-0.8-0.8v-2.4c0-3.1-2.5-5.5-5.5-5.5c-2.7,0-5.1,2-5.5,4.7c-0.1,0.4-0.5,0.7-0.9,0.7
	c-0.4-0.1-0.7-0.5-0.7-0.9c0.5-3.5,3.5-6.1,7.1-6.1c3.9,0,7.1,3.2,7.1,7.1v2.4C30.3,25,29.9,25.3,29.5,25.3z"/>
<path class="st0" d="M34.2,25.3H18.7c-0.4,0-0.8-0.4-0.8-0.8s0.4-0.8,0.8-0.8h15.5c1.3,0,2.4-1.1,2.4-2.4V4.7c0-1.3-1.1-2.4-2.4-2.4
	H10.5c-1.3,0-2.4,1.1-2.4,2.4v1c0,0.4-0.4,0.8-0.8,0.8S6.5,6.2,6.5,5.7v-1c0-2.2,1.8-4,4-4h23.8c2.2,0,4,1.8,4,4v16.6
	C38.2,23.5,36.4,25.3,34.2,25.3z"/>
<path class="st0" d="M9,18.2c-3.1,0-5.5-2.5-5.5-5.5S5.9,7.1,9,7.1s5.5,2.5,5.5,5.5S12.1,18.2,9,18.2z M9,8.7c-2.2,0-4,1.8-4,4
	s1.8,4,4,4s4-1.8,4-4S11.2,8.7,9,8.7z"/>
<path class="st0" d="M16.8,32.4c-0.4,0-0.8-0.4-0.8-0.8v-4c0-3.9-3.2-7.1-7.1-7.1s-7.1,3.2-7.1,7.1v4c0,0.4-0.4,0.8-0.8,0.8
	S0.2,32,0.2,31.6v-4c0-4.8,3.9-8.7,8.7-8.7s8.7,3.9,8.7,8.7v4C17.6,32.1,17.3,32.4,16.8,32.4z"/>
<path class="st0" d="M32.5,8.3c-1,0-1.8-0.8-1.8-1.8s0.8-1.8,1.8-1.8s1.8,0.8,1.8,1.8S33.5,8.3,32.5,8.3z M32.5,6.3
	c-0.1,0-0.2,0.1-0.2,0.2c0,0.2,0.4,0.2,0.4,0C32.7,6.4,32.6,6.3,32.5,6.3z"/>
</svg>
