<?xml version="1.0" encoding="UTF-8"?>
<svg width="158px" height="126px" viewBox="0 0 158 126" version="1.1" xmlns="http://www.w3.org/2000/svg" xmlns:xlink="http://www.w3.org/1999/xlink">
    <title>Group 33</title>
    <g id="Page-1" stroke="none" stroke-width="1" fill="none" fill-rule="evenodd">
        <g id="Hover-Stages" transform="translate(-551.000000, -6560.000000)">
            <g id="Group-33" transform="translate(552.000000, 6561.000000)">
                <g id="Group-17" stroke="#505050" stroke-linecap="round" stroke-linejoin="round">
                    <path d="M66.06172,75.03452 C60.69212,78.67812 54.21132,80.80692 47.23332,80.80692 C28.69132,80.80692 13.66012,65.77572 13.66012,47.23372 C13.66012,28.69132 28.69132,13.66012 47.23332,13.66012 C65.77532,13.66012 80.80652,28.69132 80.80652,47.23372 C80.80652,48.16092 80.76932,49.07972 80.69532,49.98812" id="Stroke-1" stroke-width="5.4"></path>
                    <path d="M39.65236,37.48648 C39.65236,38.68288 38.68236,39.65248 37.48636,39.65248 C36.28996,39.65248 35.32036,38.68288 35.32036,37.48648 C35.32036,36.29008 36.28996,35.32048 37.48636,35.32048 C38.68236,35.32048 39.65236,36.29008 39.65236,37.48648 Z" id="Stroke-3" stroke-width="5.4"></path>
                    <path d="M59.14648,37.48648 C59.14648,38.68288 58.17688,39.65248 56.98048,39.65248 C55.78408,39.65248 54.81448,38.68288 54.81448,37.48648 C54.81448,36.29008 55.78408,35.32048 56.98048,35.32048 C58.17688,35.32048 59.14648,36.29008 59.14648,37.48648 Z" id="Stroke-5" stroke-width="5.4"></path>
                    <path d="M34.23732,55.22668 C36.70252,59.88708 41.59412,63.06668 47.23332,63.06668 C52.87292,63.06668 57.76452,59.88708 60.22932,55.22668" id="Stroke-7" stroke-width="5.4"></path>
                    <path d="M124.47188,91.33684 L124.45388,91.34364 C124.41348,91.21204 124.37388,91.08084 124.32388,90.95084 C124.32388,90.95084 119.38508,78.58324 116.80468,73.71884 C116.61548,73.29724 116.34868,72.91444 115.96788,72.33524 C114.74388,70.47524 112.08388,70.10524 110.25748,70.78684 C108.76948,71.34244 107.92188,72.36484 107.44548,73.69924 C106.11868,70.77684 103.03948,69.56804 100.24628,70.63964 C98.46108,71.32444 97.30908,72.79724 96.82228,74.54604 C95.29988,72.09684 92.43068,71.15204 89.81148,72.15684 C87.53228,73.03084 86.10388,75.13044 86.10428,77.53124 L78.95148,58.88404 C77.69148,55.59924 74.42668,53.79644 71.65908,54.85804 C68.89188,55.91964 67.67068,59.44324 68.93028,62.72844 L81.45908,95.38964 C79.96348,93.59204 78.62268,92.01604 77.62708,90.91324 C74.07788,86.98284 69.53868,85.47204 66.93988,87.15844 C63.05788,89.67844 68.70308,95.21444 71.88108,99.86404 C74.49148,103.68284 79.75548,110.83284 81.27188,112.46964 C83.91788,115.32524 86.46708,117.64324 88.65988,119.02244 C95.80268,124.17884 103.95788,124.47844 111.66948,121.52004 C121.01868,117.93364 130.80988,107.86004 124.47188,91.33684 Z" id="Stroke-9" stroke-width="2.4"></path>
                    <path d="M47.2334,94.16692 C21.313,94.16692 0.3002,73.15412 0.3002,47.23372" id="Stroke-13" stroke-width="2.4"></path>
                    <path d="M47.2334,0.30016 C73.1538,0.30016 94.1666,21.31296 94.1666,47.23336" id="Stroke-15" stroke-width="2.4"></path>
                </g>
                <g id="Icon/Warning" transform="translate(103.000000, 8.000000)" fill="#F9C362">
                    <path d="M29.9398037,2.16779829 L53.3123232,43.769674 C54.9351958,46.6583033 53.5852064,49 50.3196761,49 L3.68298977,49 C0.40732379,49 -0.934516749,46.6618397 0.690342617,43.769674 L24.0628622,2.16779829 C25.6857347,-0.720830982 28.3149443,-0.724367334 29.9398037,2.16779829 Z M26.5,35.1428571 C23.9903846,35.1428571 22,37.1206657 22,39.5714286 C22,42.0221914 23.9903846,44 26.5,44 C29.0096154,44 31,42.0221914 31,39.5714286 C31,37.1206657 29.0096154,35.1428571 26.5,35.1428571 Z M28.1512656,13 L24.8487344,13 C24.769649,13 24.6906048,13.0036084 24.6118484,13.0108138 C23.1818803,13.1416424 22.1287197,14.406918 22.2595483,15.8368861 L22.2595483,15.8368861 L23.6611239,31.156236 C23.7529733,32.1601581 24.5948985,32.9285714 25.6030135,32.9285714 L25.6030135,32.9285714 L27.3969865,32.9285714 C28.4051015,32.9285714 29.2470267,32.1601581 29.3388761,31.156236 L29.3388761,31.156236 L30.7404517,15.8368861 C30.7476572,15.7581296 30.7512656,15.6790854 30.7512656,15.6 C30.7512656,14.1640597 29.5872059,13 28.1512656,13 L28.1512656,13 Z" id="Icon-Color"></path>
                </g>
            </g>
        </g>
    </g>
</svg>