<?xml version="1.0" encoding="UTF-8"?>
<svg width="141px" height="108px" viewBox="0 0 141 108" version="1.1" xmlns="http://www.w3.org/2000/svg" xmlns:xlink="http://www.w3.org/1999/xlink">
    <title>Artboard Copy 2</title>
    <g id="Artboard-Copy-2" stroke="none" stroke-width="1" fill="none" fill-rule="evenodd" stroke-linecap="round" stroke-linejoin="round">
        <g id="Group-5" transform="translate(13.000000, 28.000000)" stroke="#313131" stroke-width="4">
            <path d="M51.9577356,31.5277092 L34.3531342,49.0807673 C29.7807702,53.6397442 22.369008,53.6397442 17.7983103,49.0807673 L3.4280233,34.7525541 C-1.14267443,30.1935771 -1.14267443,22.8051768 3.4280233,18.2478613 L17.7983103,3.91798663 C22.369008,-0.639328876 29.7807702,-0.639328876 34.3531342,3.91798663 L57,26.5002077" id="Stroke-1"></path>
            <path d="M62.0405981,21.4739522 L79.6468658,3.9192327 C84.2192298,-0.639744235 91.6293257,-0.639744235 96.2000234,3.9192327 L110.571977,18.2491074 C115.142674,22.8064229 115.142674,30.1948232 110.571977,34.7538001 L96.2000234,49.0820134 C91.6293257,53.6393289 84.2192298,53.6393289 79.6468658,49.0820134 L57,26.4997923" id="Stroke-3"></path>
        </g>
    </g>
</svg>